<mxfile host="app.diagrams.net" agent="Mozilla/5.0 (Windows NT 10.0; Win64; x64) AppleWebKit/537.36 (KHTML, like Gecko) Chrome/131.0.0.0 Safari/537.36" version="24.8.6">
  <diagram name="Página-1" id="Nm1Fz7t73D1OGTeDfmak">
    <mxGraphModel dx="3754" dy="1044" grid="1" gridSize="10" guides="1" tooltips="1" connect="1" arrows="1" fold="1" page="1" pageScale="1" pageWidth="827" pageHeight="1169" math="0" shadow="0">
      <root>
        <mxCell id="0" />
        <mxCell id="1" parent="0" />
        <mxCell id="8YJoVrMXhFkuWjcxH3iJ-1" value="" style="shape=umlLifeline;perimeter=lifelinePerimeter;whiteSpace=wrap;html=1;container=1;dropTarget=0;collapsible=0;recursiveResize=0;outlineConnect=0;portConstraint=eastwest;newEdgeStyle={&quot;curved&quot;:0,&quot;rounded&quot;:0};participant=umlActor;" parent="1" vertex="1">
          <mxGeometry x="-1629" y="200" width="20" height="420" as="geometry" />
        </mxCell>
        <mxCell id="8YJoVrMXhFkuWjcxH3iJ-2" value="«View»&lt;br&gt;&lt;b&gt;TelaCriarReclamação&lt;/b&gt;" style="shape=umlLifeline;perimeter=lifelinePerimeter;whiteSpace=wrap;html=1;container=1;dropTarget=0;collapsible=0;recursiveResize=0;outlineConnect=0;portConstraint=eastwest;newEdgeStyle={&quot;curved&quot;:0,&quot;rounded&quot;:0};" parent="1" vertex="1">
          <mxGeometry x="-1569" y="200" width="120" height="410" as="geometry" />
        </mxCell>
        <mxCell id="8YJoVrMXhFkuWjcxH3iJ-11" value="" style="html=1;points=[[0,0,0,0,5],[0,1,0,0,-5],[1,0,0,0,5],[1,1,0,0,-5]];perimeter=orthogonalPerimeter;outlineConnect=0;targetShapes=umlLifeline;portConstraint=eastwest;newEdgeStyle={&quot;curved&quot;:0,&quot;rounded&quot;:0};" parent="8YJoVrMXhFkuWjcxH3iJ-2" vertex="1">
          <mxGeometry x="55" y="80" width="10" height="280" as="geometry" />
        </mxCell>
        <mxCell id="8YJoVrMXhFkuWjcxH3iJ-3" value="&lt;span style=&quot;font-family: Helvetica; font-size: 12px; font-style: normal; font-variant-ligatures: normal; font-variant-caps: normal; font-weight: 400; letter-spacing: normal; orphans: 2; text-align: center; text-indent: 0px; text-transform: none; widows: 2; word-spacing: 0px; -webkit-text-stroke-width: 0px; white-space: nowrap; text-decoration-thickness: initial; text-decoration-style: initial; text-decoration-color: initial; float: none; display: inline !important;&quot;&gt;Reclamação&lt;/span&gt;" style="shape=umlLifeline;perimeter=lifelinePerimeter;whiteSpace=wrap;html=1;container=1;dropTarget=0;collapsible=0;recursiveResize=0;outlineConnect=0;portConstraint=eastwest;newEdgeStyle={&quot;curved&quot;:0,&quot;rounded&quot;:0};" parent="1" vertex="1">
          <mxGeometry x="-699.08" y="200" width="100" height="420" as="geometry" />
        </mxCell>
        <mxCell id="8YJoVrMXhFkuWjcxH3iJ-17" value="" style="html=1;points=[[0,0,0,0,5],[0,1,0,0,-5],[1,0,0,0,5],[1,1,0,0,-5]];perimeter=orthogonalPerimeter;outlineConnect=0;targetShapes=umlLifeline;portConstraint=eastwest;newEdgeStyle={&quot;curved&quot;:0,&quot;rounded&quot;:0};" parent="8YJoVrMXhFkuWjcxH3iJ-3" vertex="1">
          <mxGeometry x="45" y="230" width="10" height="130" as="geometry" />
        </mxCell>
        <mxCell id="Itz8E9hRGJA2VsY3wR06-3" value="" style="html=1;points=[[0,0,0,0,5],[0,1,0,0,-5],[1,0,0,0,5],[1,1,0,0,-5]];perimeter=orthogonalPerimeter;outlineConnect=0;targetShapes=umlLifeline;portConstraint=eastwest;newEdgeStyle={&quot;curved&quot;:0,&quot;rounded&quot;:0};" parent="8YJoVrMXhFkuWjcxH3iJ-3" vertex="1">
          <mxGeometry x="45" y="80" width="10" height="130" as="geometry" />
        </mxCell>
        <mxCell id="8YJoVrMXhFkuWjcxH3iJ-4" value="Reclamação&lt;span style=&quot;background-color: initial;&quot;&gt;DAO&lt;/span&gt;" style="shape=umlLifeline;perimeter=lifelinePerimeter;whiteSpace=wrap;html=1;container=1;dropTarget=0;collapsible=0;recursiveResize=0;outlineConnect=0;portConstraint=eastwest;newEdgeStyle={&quot;curved&quot;:0,&quot;rounded&quot;:0};" parent="1" vertex="1">
          <mxGeometry x="-559.08" y="200" width="100" height="420" as="geometry" />
        </mxCell>
        <mxCell id="8YJoVrMXhFkuWjcxH3iJ-21" value="" style="html=1;points=[[0,0,0,0,5],[0,1,0,0,-5],[1,0,0,0,5],[1,1,0,0,-5]];perimeter=orthogonalPerimeter;outlineConnect=0;targetShapes=umlLifeline;portConstraint=eastwest;newEdgeStyle={&quot;curved&quot;:0,&quot;rounded&quot;:0};" parent="8YJoVrMXhFkuWjcxH3iJ-4" vertex="1">
          <mxGeometry x="45" y="252" width="10" height="35" as="geometry" />
        </mxCell>
        <mxCell id="Itz8E9hRGJA2VsY3wR06-4" value="" style="html=1;points=[[0,0,0,0,5],[0,1,0,0,-5],[1,0,0,0,5],[1,1,0,0,-5]];perimeter=orthogonalPerimeter;outlineConnect=0;targetShapes=umlLifeline;portConstraint=eastwest;newEdgeStyle={&quot;curved&quot;:0,&quot;rounded&quot;:0};" parent="8YJoVrMXhFkuWjcxH3iJ-4" vertex="1">
          <mxGeometry x="45" y="80" width="10" height="120" as="geometry" />
        </mxCell>
        <mxCell id="8YJoVrMXhFkuWjcxH3iJ-5" value="&lt;span style=&quot;text-wrap: nowrap;&quot;&gt;ReclamaçãoCtr&lt;/span&gt;" style="shape=umlLifeline;perimeter=lifelinePerimeter;whiteSpace=wrap;html=1;container=1;dropTarget=0;collapsible=0;recursiveResize=0;outlineConnect=0;portConstraint=eastwest;newEdgeStyle={&quot;curved&quot;:0,&quot;rounded&quot;:0};" parent="1" vertex="1">
          <mxGeometry x="-838.0799999999999" y="200" width="100" height="420" as="geometry" />
        </mxCell>
        <mxCell id="8YJoVrMXhFkuWjcxH3iJ-14" value="" style="html=1;points=[[0,0,0,0,5],[0,1,0,0,-5],[1,0,0,0,5],[1,1,0,0,-5]];perimeter=orthogonalPerimeter;outlineConnect=0;targetShapes=umlLifeline;portConstraint=eastwest;newEdgeStyle={&quot;curved&quot;:0,&quot;rounded&quot;:0};" parent="8YJoVrMXhFkuWjcxH3iJ-5" vertex="1">
          <mxGeometry x="45" y="220" width="10" height="140" as="geometry" />
        </mxCell>
        <mxCell id="MWtMTN-vaptqBk0fMwmd-2" value="" style="html=1;points=[[0,0,0,0,5],[0,1,0,0,-5],[1,0,0,0,5],[1,1,0,0,-5]];perimeter=orthogonalPerimeter;outlineConnect=0;targetShapes=umlLifeline;portConstraint=eastwest;newEdgeStyle={&quot;curved&quot;:0,&quot;rounded&quot;:0};" parent="8YJoVrMXhFkuWjcxH3iJ-5" vertex="1">
          <mxGeometry x="45" y="80" width="10" height="130" as="geometry" />
        </mxCell>
        <mxCell id="8YJoVrMXhFkuWjcxH3iJ-6" value="Criar Reclamação" style="endArrow=block;endFill=1;html=1;edgeStyle=orthogonalEdgeStyle;align=left;verticalAlign=top;rounded=0;entryX=0;entryY=0;entryDx=0;entryDy=5;entryPerimeter=0;" parent="1" target="8YJoVrMXhFkuWjcxH3iJ-11" edge="1">
          <mxGeometry x="-0.8076" y="30" relative="1" as="geometry">
            <mxPoint x="-1619.0714285714284" y="290" as="sourcePoint" />
            <mxPoint x="-1514" y="290" as="targetPoint" />
            <mxPoint as="offset" />
            <Array as="points">
              <mxPoint x="-1619" y="285" />
            </Array>
          </mxGeometry>
        </mxCell>
        <mxCell id="8YJoVrMXhFkuWjcxH3iJ-8" value="&lt;span style=&quot;font-family: Helvetica; font-size: 12px; font-style: normal; font-variant-ligatures: normal; font-variant-caps: normal; font-weight: 400; letter-spacing: normal; orphans: 2; text-align: center; text-indent: 0px; text-transform: none; widows: 2; word-spacing: 0px; -webkit-text-stroke-width: 0px; white-space: nowrap; text-decoration-thickness: initial; text-decoration-style: initial; text-decoration-color: initial; float: none; display: inline !important;&quot;&gt;Usuario&lt;/span&gt;" style="shape=umlLifeline;perimeter=lifelinePerimeter;whiteSpace=wrap;html=1;container=1;dropTarget=0;collapsible=0;recursiveResize=0;outlineConnect=0;portConstraint=eastwest;newEdgeStyle={&quot;curved&quot;:0,&quot;rounded&quot;:0};" parent="1" vertex="1">
          <mxGeometry x="-429.08000000000004" y="200" width="100" height="420" as="geometry" />
        </mxCell>
        <mxCell id="8YJoVrMXhFkuWjcxH3iJ-27" value="" style="html=1;points=[[0,0,0,0,5],[0,1,0,0,-5],[1,0,0,0,5],[1,1,0,0,-5]];perimeter=orthogonalPerimeter;outlineConnect=0;targetShapes=umlLifeline;portConstraint=eastwest;newEdgeStyle={&quot;curved&quot;:0,&quot;rounded&quot;:0};" parent="8YJoVrMXhFkuWjcxH3iJ-8" vertex="1">
          <mxGeometry x="45" y="300" width="10" height="50" as="geometry" />
        </mxCell>
        <mxCell id="8YJoVrMXhFkuWjcxH3iJ-9" value="&lt;span style=&quot;text-wrap: nowrap;&quot;&gt;Usuario&lt;/span&gt;DAO" style="shape=umlLifeline;perimeter=lifelinePerimeter;whiteSpace=wrap;html=1;container=1;dropTarget=0;collapsible=0;recursiveResize=0;outlineConnect=0;portConstraint=eastwest;newEdgeStyle={&quot;curved&quot;:0,&quot;rounded&quot;:0};" parent="1" vertex="1">
          <mxGeometry x="-303.08000000000004" y="200" width="100" height="420" as="geometry" />
        </mxCell>
        <mxCell id="8YJoVrMXhFkuWjcxH3iJ-30" value="" style="html=1;points=[[0,0,0,0,5],[0,1,0,0,-5],[1,0,0,0,5],[1,1,0,0,-5]];perimeter=orthogonalPerimeter;outlineConnect=0;targetShapes=umlLifeline;portConstraint=eastwest;newEdgeStyle={&quot;curved&quot;:0,&quot;rounded&quot;:0};" parent="8YJoVrMXhFkuWjcxH3iJ-9" vertex="1">
          <mxGeometry x="45" y="307.5" width="10" height="35" as="geometry" />
        </mxCell>
        <mxCell id="8YJoVrMXhFkuWjcxH3iJ-10" value="Usuário" style="text;align=center;fontStyle=1;verticalAlign=middle;spacingLeft=3;spacingRight=3;strokeColor=none;rotatable=0;points=[[0,0.5],[1,0.5]];portConstraint=eastwest;html=1;" parent="1" vertex="1">
          <mxGeometry x="-1654" y="170" width="70" height="26" as="geometry" />
        </mxCell>
        <mxCell id="8YJoVrMXhFkuWjcxH3iJ-18" value="&lt;span style=&quot;font-size: 12px; text-align: left;&quot;&gt;criar()&lt;/span&gt;" style="html=1;verticalAlign=bottom;endArrow=block;curved=0;rounded=0;" parent="1" edge="1">
          <mxGeometry relative="1" as="geometry">
            <mxPoint x="-783.0799999999999" y="447" as="sourcePoint" />
            <mxPoint as="offset" />
            <mxPoint x="-654.0799999999999" y="447" as="targetPoint" />
          </mxGeometry>
        </mxCell>
        <mxCell id="8YJoVrMXhFkuWjcxH3iJ-22" value="criar()" style="html=1;verticalAlign=bottom;endArrow=block;curved=0;rounded=0;entryX=0;entryY=0;entryDx=0;entryDy=5;" parent="1" target="8YJoVrMXhFkuWjcxH3iJ-21" edge="1">
          <mxGeometry relative="1" as="geometry">
            <mxPoint x="-644.0799999999999" y="457" as="sourcePoint" />
          </mxGeometry>
        </mxCell>
        <mxCell id="8YJoVrMXhFkuWjcxH3iJ-23" value="Reclamação Registrada" style="html=1;verticalAlign=bottom;endArrow=open;dashed=1;endSize=8;curved=0;rounded=0;exitX=0;exitY=1;exitDx=0;exitDy=-5;" parent="1" source="8YJoVrMXhFkuWjcxH3iJ-21" edge="1">
          <mxGeometry relative="1" as="geometry">
            <mxPoint x="-644.0799999999999" y="482" as="targetPoint" />
          </mxGeometry>
        </mxCell>
        <mxCell id="8YJoVrMXhFkuWjcxH3iJ-28" value="&lt;span style=&quot;font-size: 12px; text-align: left;&quot;&gt;atualizarPontos()&lt;/span&gt;" style="html=1;verticalAlign=bottom;endArrow=block;curved=0;rounded=0;entryX=0;entryY=0;entryDx=0;entryDy=5;entryPerimeter=0;" parent="1" edge="1">
          <mxGeometry x="0.0417" relative="1" as="geometry">
            <mxPoint x="-644.0799999999999" y="512" as="sourcePoint" />
            <mxPoint as="offset" />
            <mxPoint x="-384.0800000000004" y="512" as="targetPoint" />
            <Array as="points" />
          </mxGeometry>
        </mxCell>
        <mxCell id="8YJoVrMXhFkuWjcxH3iJ-31" value="&lt;span style=&quot;font-size: 12px; text-align: left;&quot;&gt;atualizarPontos()&lt;/span&gt;" style="html=1;verticalAlign=bottom;endArrow=block;curved=0;rounded=0;entryX=0;entryY=0;entryDx=0;entryDy=5;" parent="1" edge="1">
          <mxGeometry x="-0.0598" relative="1" as="geometry">
            <mxPoint x="-374.0800000000004" y="519.5" as="sourcePoint" />
            <mxPoint as="offset" />
            <mxPoint x="-258.0799999999999" y="519.5" as="targetPoint" />
          </mxGeometry>
        </mxCell>
        <mxCell id="8YJoVrMXhFkuWjcxH3iJ-19" value="Reclamação Criada" style="html=1;verticalAlign=bottom;endArrow=open;dashed=1;endSize=8;curved=0;rounded=0;" parent="1" source="8YJoVrMXhFkuWjcxH3iJ-17" edge="1">
          <mxGeometry x="-0.005" relative="1" as="geometry">
            <mxPoint x="-783.0799999999999" y="550" as="targetPoint" />
            <mxPoint as="offset" />
            <mxPoint x="-663.08" y="549.9999999999998" as="sourcePoint" />
            <Array as="points">
              <mxPoint x="-723.08" y="550" />
            </Array>
          </mxGeometry>
        </mxCell>
        <mxCell id="8YJoVrMXhFkuWjcxH3iJ-16" value="Reclamação Criada" style="html=1;verticalAlign=bottom;endArrow=open;dashed=1;endSize=8;curved=0;rounded=0;exitX=0;exitY=1;exitDx=0;exitDy=-5;entryX=1;entryY=1;entryDx=0;entryDy=-5;entryPerimeter=0;exitPerimeter=0;" parent="1" source="8YJoVrMXhFkuWjcxH3iJ-14" target="8YJoVrMXhFkuWjcxH3iJ-11" edge="1">
          <mxGeometry relative="1" as="geometry">
            <mxPoint x="-1504" y="549.9999999999999" as="targetPoint" />
            <mxPoint x="-1374" y="549.9999999999999" as="sourcePoint" />
          </mxGeometry>
        </mxCell>
        <mxCell id="Itz8E9hRGJA2VsY3wR06-1" value="Usuário Atualizado" style="html=1;verticalAlign=bottom;endArrow=open;dashed=1;endSize=8;curved=0;rounded=0;exitX=0;exitY=1;exitDx=0;exitDy=-5;exitPerimeter=0;" parent="1" source="8YJoVrMXhFkuWjcxH3iJ-27" target="8YJoVrMXhFkuWjcxH3iJ-17" edge="1">
          <mxGeometry x="-0.0417" relative="1" as="geometry">
            <mxPoint x="-648.08" y="545" as="targetPoint" />
            <mxPoint as="offset" />
            <mxPoint x="-408.08000000000004" y="545" as="sourcePoint" />
          </mxGeometry>
        </mxCell>
        <mxCell id="Itz8E9hRGJA2VsY3wR06-2" value="Usuário Atualizado" style="html=1;verticalAlign=bottom;endArrow=open;dashed=1;endSize=8;curved=0;rounded=0;exitX=0;exitY=1;exitDx=0;exitDy=-5;exitPerimeter=0;" parent="1" source="8YJoVrMXhFkuWjcxH3iJ-30" target="8YJoVrMXhFkuWjcxH3iJ-27" edge="1">
          <mxGeometry x="-0.0417" relative="1" as="geometry">
            <mxPoint x="-473.08000000000004" y="597" as="targetPoint" />
            <mxPoint as="offset" />
            <mxPoint x="-233.08000000000004" y="597" as="sourcePoint" />
          </mxGeometry>
        </mxCell>
        <mxCell id="Itz8E9hRGJA2VsY3wR06-7" value="&lt;span style=&quot;font-size: 12px; text-align: left;&quot;&gt;criar()&lt;/span&gt;" style="html=1;verticalAlign=bottom;endArrow=block;curved=0;rounded=0;" parent="1" edge="1">
          <mxGeometry x="0.605" relative="1" as="geometry">
            <mxPoint x="-1504" y="437" as="sourcePoint" />
            <mxPoint as="offset" />
            <mxPoint x="-793.0799999999999" y="437" as="targetPoint" />
          </mxGeometry>
        </mxCell>
        <mxCell id="Itz8E9hRGJA2VsY3wR06-8" value="&lt;span style=&quot;font-size: 12px; text-align: left;&quot;&gt;buscar()&lt;/span&gt;" style="html=1;verticalAlign=bottom;endArrow=block;curved=0;rounded=0;" parent="1" edge="1">
          <mxGeometry x="0.7727" relative="1" as="geometry">
            <mxPoint x="-1503.5" y="366" as="sourcePoint" />
            <mxPoint as="offset" />
            <mxPoint x="-793.0799999999999" y="366" as="targetPoint" />
          </mxGeometry>
        </mxCell>
        <mxCell id="Itz8E9hRGJA2VsY3wR06-10" value="&lt;span style=&quot;font-size: 12px; text-align: left;&quot;&gt;buscar()&lt;/span&gt;" style="html=1;verticalAlign=bottom;endArrow=block;curved=0;rounded=0;" parent="1" edge="1">
          <mxGeometry relative="1" as="geometry">
            <mxPoint x="-783.0799999999999" y="368" as="sourcePoint" />
            <mxPoint as="offset" />
            <mxPoint x="-654.08" y="368" as="targetPoint" />
          </mxGeometry>
        </mxCell>
        <mxCell id="Itz8E9hRGJA2VsY3wR06-11" value="&lt;span style=&quot;font-size: 12px; text-align: left;&quot;&gt;buscar()&lt;/span&gt;" style="html=1;verticalAlign=bottom;endArrow=block;curved=0;rounded=0;" parent="1" edge="1">
          <mxGeometry relative="1" as="geometry">
            <mxPoint x="-644.08" y="378" as="sourcePoint" />
            <mxPoint as="offset" />
            <mxPoint x="-514.08" y="378" as="targetPoint" />
          </mxGeometry>
        </mxCell>
        <mxCell id="Itz8E9hRGJA2VsY3wR06-12" value="Reclamações Encontradas" style="html=1;verticalAlign=bottom;endArrow=open;dashed=1;endSize=8;curved=0;rounded=0;" parent="1" edge="1">
          <mxGeometry relative="1" as="geometry">
            <mxPoint x="-644.08" y="394" as="targetPoint" />
            <mxPoint x="-514.08" y="394" as="sourcePoint" />
          </mxGeometry>
        </mxCell>
        <mxCell id="Itz8E9hRGJA2VsY3wR06-13" value="Reclamações Encontradas" style="html=1;verticalAlign=bottom;endArrow=open;dashed=1;endSize=8;curved=0;rounded=0;" parent="1" edge="1">
          <mxGeometry relative="1" as="geometry">
            <mxPoint x="-783.0799999999999" y="404" as="targetPoint" />
            <mxPoint x="-654.0799999999999" y="404" as="sourcePoint" />
          </mxGeometry>
        </mxCell>
        <mxCell id="Itz8E9hRGJA2VsY3wR06-14" value="Reclamações Encontradas" style="html=1;verticalAlign=bottom;endArrow=open;dashed=1;endSize=8;curved=0;rounded=0;exitX=0;exitY=1;exitDx=0;exitDy=-5;exitPerimeter=0;" parent="1" edge="1">
          <mxGeometry x="0.5242" y="5" relative="1" as="geometry">
            <mxPoint x="-1504" y="408" as="targetPoint" />
            <mxPoint x="-793.0799999999999" y="408" as="sourcePoint" />
            <mxPoint as="offset" />
          </mxGeometry>
        </mxCell>
        <mxCell id="Itz8E9hRGJA2VsY3wR06-51" value="" style="shape=umlLifeline;perimeter=lifelinePerimeter;whiteSpace=wrap;html=1;container=1;dropTarget=0;collapsible=0;recursiveResize=0;outlineConnect=0;portConstraint=eastwest;newEdgeStyle={&quot;curved&quot;:0,&quot;rounded&quot;:0};participant=umlActor;" parent="1" vertex="1">
          <mxGeometry x="-1629" y="1320" width="20" height="390" as="geometry" />
        </mxCell>
        <mxCell id="Itz8E9hRGJA2VsY3wR06-52" value="«View»&lt;br&gt;&lt;b&gt;TelaCriarReclamação&lt;/b&gt;" style="shape=umlLifeline;perimeter=lifelinePerimeter;whiteSpace=wrap;html=1;container=1;dropTarget=0;collapsible=0;recursiveResize=0;outlineConnect=0;portConstraint=eastwest;newEdgeStyle={&quot;curved&quot;:0,&quot;rounded&quot;:0};" parent="1" vertex="1">
          <mxGeometry x="-1569" y="1320" width="120" height="390" as="geometry" />
        </mxCell>
        <mxCell id="Itz8E9hRGJA2VsY3wR06-53" value="" style="html=1;points=[[0,0,0,0,5],[0,1,0,0,-5],[1,0,0,0,5],[1,1,0,0,-5]];perimeter=orthogonalPerimeter;outlineConnect=0;targetShapes=umlLifeline;portConstraint=eastwest;newEdgeStyle={&quot;curved&quot;:0,&quot;rounded&quot;:0};" parent="Itz8E9hRGJA2VsY3wR06-52" vertex="1">
          <mxGeometry x="55" y="80" width="10" height="290" as="geometry" />
        </mxCell>
        <mxCell id="Itz8E9hRGJA2VsY3wR06-54" value="&lt;span style=&quot;font-family: Helvetica; font-size: 12px; font-style: normal; font-variant-ligatures: normal; font-variant-caps: normal; font-weight: 400; letter-spacing: normal; orphans: 2; text-align: center; text-indent: 0px; text-transform: none; widows: 2; word-spacing: 0px; -webkit-text-stroke-width: 0px; white-space: nowrap; text-decoration-thickness: initial; text-decoration-style: initial; text-decoration-color: initial; float: none; display: inline !important;&quot;&gt;Reclamação&lt;/span&gt;" style="shape=umlLifeline;perimeter=lifelinePerimeter;whiteSpace=wrap;html=1;container=1;dropTarget=0;collapsible=0;recursiveResize=0;outlineConnect=0;portConstraint=eastwest;newEdgeStyle={&quot;curved&quot;:0,&quot;rounded&quot;:0};" parent="1" vertex="1">
          <mxGeometry x="-720.5" y="1320" width="100" height="390" as="geometry" />
        </mxCell>
        <mxCell id="Itz8E9hRGJA2VsY3wR06-55" value="" style="html=1;points=[[0,0,0,0,5],[0,1,0,0,-5],[1,0,0,0,5],[1,1,0,0,-5]];perimeter=orthogonalPerimeter;outlineConnect=0;targetShapes=umlLifeline;portConstraint=eastwest;newEdgeStyle={&quot;curved&quot;:0,&quot;rounded&quot;:0};" parent="Itz8E9hRGJA2VsY3wR06-54" vertex="1">
          <mxGeometry x="45" y="237" width="10" height="130" as="geometry" />
        </mxCell>
        <mxCell id="Itz8E9hRGJA2VsY3wR06-56" value="" style="html=1;points=[[0,0,0,0,5],[0,1,0,0,-5],[1,0,0,0,5],[1,1,0,0,-5]];perimeter=orthogonalPerimeter;outlineConnect=0;targetShapes=umlLifeline;portConstraint=eastwest;newEdgeStyle={&quot;curved&quot;:0,&quot;rounded&quot;:0};" parent="Itz8E9hRGJA2VsY3wR06-54" vertex="1">
          <mxGeometry x="45" y="80" width="10" height="130" as="geometry" />
        </mxCell>
        <mxCell id="Itz8E9hRGJA2VsY3wR06-57" value="Reclamação&lt;div&gt;DAO&lt;/div&gt;" style="shape=umlLifeline;perimeter=lifelinePerimeter;whiteSpace=wrap;html=1;container=1;dropTarget=0;collapsible=0;recursiveResize=0;outlineConnect=0;portConstraint=eastwest;newEdgeStyle={&quot;curved&quot;:0,&quot;rounded&quot;:0};" parent="1" vertex="1">
          <mxGeometry x="-590.5" y="1321" width="100" height="389" as="geometry" />
        </mxCell>
        <mxCell id="Itz8E9hRGJA2VsY3wR06-58" value="" style="html=1;points=[[0,0,0,0,5],[0,1,0,0,-5],[1,0,0,0,5],[1,1,0,0,-5]];perimeter=orthogonalPerimeter;outlineConnect=0;targetShapes=umlLifeline;portConstraint=eastwest;newEdgeStyle={&quot;curved&quot;:0,&quot;rounded&quot;:0};" parent="Itz8E9hRGJA2VsY3wR06-57" vertex="1">
          <mxGeometry x="45" y="252" width="10" height="35" as="geometry" />
        </mxCell>
        <mxCell id="Itz8E9hRGJA2VsY3wR06-59" value="" style="html=1;points=[[0,0,0,0,5],[0,1,0,0,-5],[1,0,0,0,5],[1,1,0,0,-5]];perimeter=orthogonalPerimeter;outlineConnect=0;targetShapes=umlLifeline;portConstraint=eastwest;newEdgeStyle={&quot;curved&quot;:0,&quot;rounded&quot;:0};" parent="Itz8E9hRGJA2VsY3wR06-57" vertex="1">
          <mxGeometry x="45" y="80" width="10" height="120" as="geometry" />
        </mxCell>
        <mxCell id="Itz8E9hRGJA2VsY3wR06-60" value="&lt;span style=&quot;text-wrap: nowrap;&quot;&gt;ReclamaçãoCtr&lt;/span&gt;" style="shape=umlLifeline;perimeter=lifelinePerimeter;whiteSpace=wrap;html=1;container=1;dropTarget=0;collapsible=0;recursiveResize=0;outlineConnect=0;portConstraint=eastwest;newEdgeStyle={&quot;curved&quot;:0,&quot;rounded&quot;:0};" parent="1" vertex="1">
          <mxGeometry x="-850.5" y="1320" width="100" height="390" as="geometry" />
        </mxCell>
        <mxCell id="Itz8E9hRGJA2VsY3wR06-61" value="" style="html=1;points=[[0,0,0,0,5],[0,1,0,0,-5],[1,0,0,0,5],[1,1,0,0,-5]];perimeter=orthogonalPerimeter;outlineConnect=0;targetShapes=umlLifeline;portConstraint=eastwest;newEdgeStyle={&quot;curved&quot;:0,&quot;rounded&quot;:0};" parent="Itz8E9hRGJA2VsY3wR06-60" vertex="1">
          <mxGeometry x="45" y="227" width="10" height="140" as="geometry" />
        </mxCell>
        <mxCell id="Itz8E9hRGJA2VsY3wR06-62" value="" style="html=1;points=[[0,0,0,0,5],[0,1,0,0,-5],[1,0,0,0,5],[1,1,0,0,-5]];perimeter=orthogonalPerimeter;outlineConnect=0;targetShapes=umlLifeline;portConstraint=eastwest;newEdgeStyle={&quot;curved&quot;:0,&quot;rounded&quot;:0};" parent="Itz8E9hRGJA2VsY3wR06-60" vertex="1">
          <mxGeometry x="45" y="80" width="10" height="130" as="geometry" />
        </mxCell>
        <mxCell id="Itz8E9hRGJA2VsY3wR06-63" value="Criar Reclamação" style="endArrow=block;endFill=1;html=1;edgeStyle=orthogonalEdgeStyle;align=left;verticalAlign=top;rounded=0;entryX=-0.166;entryY=0.047;entryDx=0;entryDy=0;entryPerimeter=0;" parent="1" edge="1">
          <mxGeometry x="-0.8076" y="30" relative="1" as="geometry">
            <mxPoint x="-1619.0714285714284" y="1405" as="sourcePoint" />
            <mxPoint x="-1514" y="1405" as="targetPoint" />
            <mxPoint as="offset" />
            <Array as="points">
              <mxPoint x="-1534" y="1405" />
              <mxPoint x="-1534" y="1405" />
            </Array>
          </mxGeometry>
        </mxCell>
        <mxCell id="Itz8E9hRGJA2VsY3wR06-64" value="&lt;span style=&quot;font-family: Helvetica; font-size: 12px; font-style: normal; font-variant-ligatures: normal; font-variant-caps: normal; font-weight: 400; letter-spacing: normal; orphans: 2; text-align: center; text-indent: 0px; text-transform: none; widows: 2; word-spacing: 0px; -webkit-text-stroke-width: 0px; white-space: nowrap; text-decoration-thickness: initial; text-decoration-style: initial; text-decoration-color: initial; float: none; display: inline !important;&quot;&gt;Usuario&lt;/span&gt;" style="shape=umlLifeline;perimeter=lifelinePerimeter;whiteSpace=wrap;html=1;container=1;dropTarget=0;collapsible=0;recursiveResize=0;outlineConnect=0;portConstraint=eastwest;newEdgeStyle={&quot;curved&quot;:0,&quot;rounded&quot;:0};" parent="1" vertex="1">
          <mxGeometry x="-465.5" y="1320" width="100" height="390" as="geometry" />
        </mxCell>
        <mxCell id="Itz8E9hRGJA2VsY3wR06-65" value="" style="html=1;points=[[0,0,0,0,5],[0,1,0,0,-5],[1,0,0,0,5],[1,1,0,0,-5]];perimeter=orthogonalPerimeter;outlineConnect=0;targetShapes=umlLifeline;portConstraint=eastwest;newEdgeStyle={&quot;curved&quot;:0,&quot;rounded&quot;:0};" parent="Itz8E9hRGJA2VsY3wR06-64" vertex="1">
          <mxGeometry x="45" y="307" width="10" height="50" as="geometry" />
        </mxCell>
        <mxCell id="Itz8E9hRGJA2VsY3wR06-66" value="&lt;span style=&quot;text-wrap: nowrap;&quot;&gt;Usuario&lt;/span&gt;DAO" style="shape=umlLifeline;perimeter=lifelinePerimeter;whiteSpace=wrap;html=1;container=1;dropTarget=0;collapsible=0;recursiveResize=0;outlineConnect=0;portConstraint=eastwest;newEdgeStyle={&quot;curved&quot;:0,&quot;rounded&quot;:0};" parent="1" vertex="1">
          <mxGeometry x="-315.5" y="1320" width="100" height="390" as="geometry" />
        </mxCell>
        <mxCell id="Itz8E9hRGJA2VsY3wR06-67" value="" style="html=1;points=[[0,0,0,0,5],[0,1,0,0,-5],[1,0,0,0,5],[1,1,0,0,-5]];perimeter=orthogonalPerimeter;outlineConnect=0;targetShapes=umlLifeline;portConstraint=eastwest;newEdgeStyle={&quot;curved&quot;:0,&quot;rounded&quot;:0};" parent="Itz8E9hRGJA2VsY3wR06-66" vertex="1">
          <mxGeometry x="45" y="314.5" width="10" height="35" as="geometry" />
        </mxCell>
        <mxCell id="Itz8E9hRGJA2VsY3wR06-68" value="Usuário" style="text;align=center;fontStyle=1;verticalAlign=middle;spacingLeft=3;spacingRight=3;strokeColor=none;rotatable=0;points=[[0,0.5],[1,0.5]];portConstraint=eastwest;html=1;" parent="1" vertex="1">
          <mxGeometry x="-1654" y="1290" width="70" height="26" as="geometry" />
        </mxCell>
        <mxCell id="Itz8E9hRGJA2VsY3wR06-69" value="&lt;span style=&quot;font-size: 12px; text-align: left;&quot;&gt;criar()&lt;/span&gt;" style="html=1;verticalAlign=bottom;endArrow=block;curved=0;rounded=0;" parent="1" edge="1">
          <mxGeometry relative="1" as="geometry">
            <mxPoint x="-795.5" y="1567" as="sourcePoint" />
            <mxPoint as="offset" />
            <mxPoint x="-675.5" y="1567" as="targetPoint" />
          </mxGeometry>
        </mxCell>
        <mxCell id="Itz8E9hRGJA2VsY3wR06-70" value="criar()" style="html=1;verticalAlign=bottom;endArrow=block;curved=0;rounded=0;entryX=0;entryY=0;entryDx=0;entryDy=5;" parent="1" source="Itz8E9hRGJA2VsY3wR06-55" target="Itz8E9hRGJA2VsY3wR06-58" edge="1">
          <mxGeometry relative="1" as="geometry">
            <mxPoint x="-585.5" y="1522" as="sourcePoint" />
          </mxGeometry>
        </mxCell>
        <mxCell id="Itz8E9hRGJA2VsY3wR06-71" value="Reclamação Registrada" style="html=1;verticalAlign=bottom;endArrow=open;dashed=1;endSize=8;curved=0;rounded=0;exitX=0;exitY=1;exitDx=0;exitDy=-5;" parent="1" source="Itz8E9hRGJA2VsY3wR06-58" target="Itz8E9hRGJA2VsY3wR06-55" edge="1">
          <mxGeometry relative="1" as="geometry">
            <mxPoint x="-650.5" y="1542" as="targetPoint" />
          </mxGeometry>
        </mxCell>
        <mxCell id="Itz8E9hRGJA2VsY3wR06-72" value="&lt;span style=&quot;font-size: 12px; text-align: left;&quot;&gt;atualizarPontos()&lt;/span&gt;" style="html=1;verticalAlign=bottom;endArrow=block;curved=0;rounded=0;entryX=0;entryY=0;entryDx=0;entryDy=5;entryPerimeter=0;" parent="1" source="Itz8E9hRGJA2VsY3wR06-55" target="Itz8E9hRGJA2VsY3wR06-65" edge="1">
          <mxGeometry x="0.0417" relative="1" as="geometry">
            <mxPoint x="-445.5" y="1572" as="sourcePoint" />
            <mxPoint as="offset" />
            <mxPoint x="-445.5" y="1627" as="targetPoint" />
            <Array as="points" />
          </mxGeometry>
        </mxCell>
        <mxCell id="Itz8E9hRGJA2VsY3wR06-73" value="&lt;span style=&quot;font-size: 12px; text-align: left;&quot;&gt;atualizarPontos()&lt;/span&gt;" style="html=1;verticalAlign=bottom;endArrow=block;curved=0;rounded=0;entryX=0;entryY=0;entryDx=0;entryDy=5;" parent="1" source="Itz8E9hRGJA2VsY3wR06-65" target="Itz8E9hRGJA2VsY3wR06-67" edge="1">
          <mxGeometry x="-0.0549" relative="1" as="geometry">
            <mxPoint x="-299.5" y="1592" as="sourcePoint" />
            <mxPoint as="offset" />
          </mxGeometry>
        </mxCell>
        <mxCell id="Itz8E9hRGJA2VsY3wR06-74" value="Reclamação Criada" style="html=1;verticalAlign=bottom;endArrow=open;dashed=1;endSize=8;curved=0;rounded=0;exitX=0;exitY=1;exitDx=0;exitDy=-5;" parent="1" edge="1">
          <mxGeometry x="-0.005" relative="1" as="geometry">
            <mxPoint x="-795.5" y="1677" as="targetPoint" />
            <mxPoint as="offset" />
            <mxPoint x="-675.5" y="1676.9999999999998" as="sourcePoint" />
            <Array as="points">
              <mxPoint x="-735.5" y="1677" />
            </Array>
          </mxGeometry>
        </mxCell>
        <mxCell id="Itz8E9hRGJA2VsY3wR06-75" value="Reclamação Criada" style="html=1;verticalAlign=bottom;endArrow=open;dashed=1;endSize=8;curved=0;rounded=0;exitX=0;exitY=1;exitDx=0;exitDy=-5;exitPerimeter=0;" parent="1" source="Itz8E9hRGJA2VsY3wR06-61" target="Itz8E9hRGJA2VsY3wR06-53" edge="1">
          <mxGeometry x="0.5105" y="5" relative="1" as="geometry">
            <mxPoint x="-1490" y="1682" as="targetPoint" />
            <mxPoint x="-1360" y="1677" as="sourcePoint" />
            <mxPoint x="-1" as="offset" />
          </mxGeometry>
        </mxCell>
        <mxCell id="Itz8E9hRGJA2VsY3wR06-76" value="Usuário Atualizado" style="html=1;verticalAlign=bottom;endArrow=open;dashed=1;endSize=8;curved=0;rounded=0;exitX=0;exitY=1;exitDx=0;exitDy=-5;exitPerimeter=0;" parent="1" source="Itz8E9hRGJA2VsY3wR06-65" target="Itz8E9hRGJA2VsY3wR06-55" edge="1">
          <mxGeometry x="-0.0417" relative="1" as="geometry">
            <mxPoint x="-660.5" y="1672" as="targetPoint" />
            <mxPoint as="offset" />
            <mxPoint x="-420.5" y="1672" as="sourcePoint" />
          </mxGeometry>
        </mxCell>
        <mxCell id="Itz8E9hRGJA2VsY3wR06-77" value="Usuário Atualizado" style="html=1;verticalAlign=bottom;endArrow=open;dashed=1;endSize=8;curved=0;rounded=0;exitX=0;exitY=1;exitDx=0;exitDy=-5;exitPerimeter=0;" parent="1" source="Itz8E9hRGJA2VsY3wR06-67" target="Itz8E9hRGJA2VsY3wR06-65" edge="1">
          <mxGeometry x="-0.0417" relative="1" as="geometry">
            <mxPoint x="-485.5" y="1724" as="targetPoint" />
            <mxPoint as="offset" />
            <mxPoint x="-245.5" y="1724" as="sourcePoint" />
          </mxGeometry>
        </mxCell>
        <mxCell id="Itz8E9hRGJA2VsY3wR06-78" value="&lt;span style=&quot;font-size: 12px; text-align: left;&quot;&gt;criar()&lt;/span&gt;" style="html=1;verticalAlign=bottom;endArrow=block;curved=0;rounded=0;" parent="1" edge="1">
          <mxGeometry x="0.4073" relative="1" as="geometry">
            <mxPoint x="-1504" y="1559" as="sourcePoint" />
            <mxPoint x="-1" as="offset" />
            <mxPoint x="-805.5" y="1559" as="targetPoint" />
          </mxGeometry>
        </mxCell>
        <mxCell id="Itz8E9hRGJA2VsY3wR06-79" value="&lt;span style=&quot;font-size: 12px; text-align: left;&quot;&gt;buscar()&lt;/span&gt;" style="html=1;verticalAlign=bottom;endArrow=block;curved=0;rounded=0;" parent="1" source="Itz8E9hRGJA2VsY3wR06-53" edge="1">
          <mxGeometry x="0.7666" relative="1" as="geometry">
            <mxPoint x="-1500" y="1489" as="sourcePoint" />
            <mxPoint as="offset" />
            <mxPoint x="-805.5" y="1489" as="targetPoint" />
            <Array as="points">
              <mxPoint x="-1286" y="1489" />
            </Array>
          </mxGeometry>
        </mxCell>
        <mxCell id="Itz8E9hRGJA2VsY3wR06-80" value="&lt;span style=&quot;font-size: 12px; text-align: left;&quot;&gt;buscar()&lt;/span&gt;" style="html=1;verticalAlign=bottom;endArrow=block;curved=0;rounded=0;" parent="1" edge="1">
          <mxGeometry relative="1" as="geometry">
            <mxPoint x="-795.5" y="1492" as="sourcePoint" />
            <mxPoint as="offset" />
            <mxPoint x="-675.5" y="1492" as="targetPoint" />
          </mxGeometry>
        </mxCell>
        <mxCell id="Itz8E9hRGJA2VsY3wR06-81" value="&lt;span style=&quot;font-size: 12px; text-align: left;&quot;&gt;buscar()&lt;/span&gt;" style="html=1;verticalAlign=bottom;endArrow=block;curved=0;rounded=0;" parent="1" edge="1">
          <mxGeometry relative="1" as="geometry">
            <mxPoint x="-665.5" y="1496" as="sourcePoint" />
            <mxPoint as="offset" />
            <mxPoint x="-545.5" y="1496" as="targetPoint" />
          </mxGeometry>
        </mxCell>
        <mxCell id="Itz8E9hRGJA2VsY3wR06-82" value="Não há Reclamação" style="html=1;verticalAlign=bottom;endArrow=open;dashed=1;endSize=8;curved=0;rounded=0;" parent="1" edge="1">
          <mxGeometry relative="1" as="geometry">
            <mxPoint x="-665.5" y="1513" as="targetPoint" />
            <mxPoint x="-545.5" y="1513" as="sourcePoint" />
            <mxPoint as="offset" />
          </mxGeometry>
        </mxCell>
        <mxCell id="Itz8E9hRGJA2VsY3wR06-83" value="Não há Reclamação" style="html=1;verticalAlign=bottom;endArrow=open;dashed=1;endSize=8;curved=0;rounded=0;" parent="1" edge="1">
          <mxGeometry relative="1" as="geometry">
            <mxPoint x="-795.5" y="1520" as="targetPoint" />
            <mxPoint x="-675.5" y="1520" as="sourcePoint" />
          </mxGeometry>
        </mxCell>
        <mxCell id="Itz8E9hRGJA2VsY3wR06-84" value="Não há Reclamação" style="html=1;verticalAlign=bottom;endArrow=open;dashed=1;endSize=8;curved=0;rounded=0;exitX=0;exitY=1;exitDx=0;exitDy=-5;exitPerimeter=0;" parent="1" edge="1">
          <mxGeometry x="-0.4073" relative="1" as="geometry">
            <mxPoint x="-1504" y="1528" as="targetPoint" />
            <mxPoint x="-805.5" y="1528" as="sourcePoint" />
            <mxPoint x="-1" as="offset" />
          </mxGeometry>
        </mxCell>
        <mxCell id="P6x3jyLfoVuhS7O4_xyp-36" value="" style="shape=umlLifeline;perimeter=lifelinePerimeter;whiteSpace=wrap;html=1;container=1;dropTarget=0;collapsible=0;recursiveResize=0;outlineConnect=0;portConstraint=eastwest;newEdgeStyle={&quot;curved&quot;:0,&quot;rounded&quot;:0};participant=umlActor;" parent="1" vertex="1">
          <mxGeometry x="-1629" y="700" width="20" height="530" as="geometry" />
        </mxCell>
        <mxCell id="P6x3jyLfoVuhS7O4_xyp-39" value="&lt;span style=&quot;font-family: Helvetica; font-size: 12px; font-style: normal; font-variant-ligatures: normal; font-variant-caps: normal; font-weight: 400; letter-spacing: normal; orphans: 2; text-align: center; text-indent: 0px; text-transform: none; widows: 2; word-spacing: 0px; -webkit-text-stroke-width: 0px; white-space: nowrap; text-decoration-thickness: initial; text-decoration-style: initial; text-decoration-color: initial; float: none; display: inline !important;&quot;&gt;Reclamação&lt;/span&gt;" style="shape=umlLifeline;perimeter=lifelinePerimeter;whiteSpace=wrap;html=1;container=1;dropTarget=0;collapsible=0;recursiveResize=0;outlineConnect=0;portConstraint=eastwest;newEdgeStyle={&quot;curved&quot;:0,&quot;rounded&quot;:0};" parent="1" vertex="1">
          <mxGeometry x="-731" y="697" width="100" height="533" as="geometry" />
        </mxCell>
        <mxCell id="P6x3jyLfoVuhS7O4_xyp-41" value="" style="html=1;points=[[0,0,0,0,5],[0,1,0,0,-5],[1,0,0,0,5],[1,1,0,0,-5]];perimeter=orthogonalPerimeter;outlineConnect=0;targetShapes=umlLifeline;portConstraint=eastwest;newEdgeStyle={&quot;curved&quot;:0,&quot;rounded&quot;:0};" parent="P6x3jyLfoVuhS7O4_xyp-39" vertex="1">
          <mxGeometry x="45" y="80" width="10" height="140" as="geometry" />
        </mxCell>
        <mxCell id="P6x3jyLfoVuhS7O4_xyp-42" value="ReclamaçãoDAO" style="shape=umlLifeline;perimeter=lifelinePerimeter;whiteSpace=wrap;html=1;container=1;dropTarget=0;collapsible=0;recursiveResize=0;outlineConnect=0;portConstraint=eastwest;newEdgeStyle={&quot;curved&quot;:0,&quot;rounded&quot;:0};" parent="1" vertex="1">
          <mxGeometry x="-601" y="697" width="100" height="533" as="geometry" />
        </mxCell>
        <mxCell id="P6x3jyLfoVuhS7O4_xyp-44" value="" style="html=1;points=[[0,0,0,0,5],[0,1,0,0,-5],[1,0,0,0,5],[1,1,0,0,-5]];perimeter=orthogonalPerimeter;outlineConnect=0;targetShapes=umlLifeline;portConstraint=eastwest;newEdgeStyle={&quot;curved&quot;:0,&quot;rounded&quot;:0};" parent="P6x3jyLfoVuhS7O4_xyp-42" vertex="1">
          <mxGeometry x="45" y="80" width="10" height="120" as="geometry" />
        </mxCell>
        <mxCell id="P6x3jyLfoVuhS7O4_xyp-45" value="&lt;span style=&quot;text-wrap: nowrap;&quot;&gt;ReclamaçãoCtr&lt;/span&gt;" style="shape=umlLifeline;perimeter=lifelinePerimeter;whiteSpace=wrap;html=1;container=1;dropTarget=0;collapsible=0;recursiveResize=0;outlineConnect=0;portConstraint=eastwest;newEdgeStyle={&quot;curved&quot;:0,&quot;rounded&quot;:0};" parent="1" vertex="1">
          <mxGeometry x="-861" y="697" width="100" height="533" as="geometry" />
        </mxCell>
        <mxCell id="P6x3jyLfoVuhS7O4_xyp-47" value="" style="html=1;points=[[0,0,0,0,5],[0,1,0,0,-5],[1,0,0,0,5],[1,1,0,0,-5]];perimeter=orthogonalPerimeter;outlineConnect=0;targetShapes=umlLifeline;portConstraint=eastwest;newEdgeStyle={&quot;curved&quot;:0,&quot;rounded&quot;:0};" parent="P6x3jyLfoVuhS7O4_xyp-45" vertex="1">
          <mxGeometry x="45" y="80" width="10" height="150" as="geometry" />
        </mxCell>
        <mxCell id="P6x3jyLfoVuhS7O4_xyp-48" value="Criar Reclamação" style="endArrow=block;endFill=1;html=1;edgeStyle=orthogonalEdgeStyle;align=left;verticalAlign=top;rounded=0;entryX=0;entryY=0;entryDx=0;entryDy=5;entryPerimeter=0;" parent="1" target="EJXAhbPzqxiQPlRAI5tO-16" edge="1">
          <mxGeometry x="-0.8076" y="30" relative="1" as="geometry">
            <mxPoint x="-1619" y="781" as="sourcePoint" />
            <mxPoint x="-1514" y="790" as="targetPoint" />
            <mxPoint as="offset" />
            <Array as="points">
              <mxPoint x="-1619" y="781" />
            </Array>
          </mxGeometry>
        </mxCell>
        <mxCell id="P6x3jyLfoVuhS7O4_xyp-49" value="&lt;span style=&quot;font-family: Helvetica; font-size: 12px; font-style: normal; font-variant-ligatures: normal; font-variant-caps: normal; font-weight: 400; letter-spacing: normal; orphans: 2; text-align: center; text-indent: 0px; text-transform: none; widows: 2; word-spacing: 0px; -webkit-text-stroke-width: 0px; white-space: nowrap; text-decoration-thickness: initial; text-decoration-style: initial; text-decoration-color: initial; float: none; display: inline !important;&quot;&gt;Usuario&lt;/span&gt;" style="shape=umlLifeline;perimeter=lifelinePerimeter;whiteSpace=wrap;html=1;container=1;dropTarget=0;collapsible=0;recursiveResize=0;outlineConnect=0;portConstraint=eastwest;newEdgeStyle={&quot;curved&quot;:0,&quot;rounded&quot;:0};" parent="1" vertex="1">
          <mxGeometry x="-22" y="697" width="100" height="533" as="geometry" />
        </mxCell>
        <mxCell id="P6x3jyLfoVuhS7O4_xyp-50" value="" style="html=1;points=[[0,0,0,0,5],[0,1,0,0,-5],[1,0,0,0,5],[1,1,0,0,-5]];perimeter=orthogonalPerimeter;outlineConnect=0;targetShapes=umlLifeline;portConstraint=eastwest;newEdgeStyle={&quot;curved&quot;:0,&quot;rounded&quot;:0};" parent="P6x3jyLfoVuhS7O4_xyp-49" vertex="1">
          <mxGeometry x="45" y="390" width="10" height="100" as="geometry" />
        </mxCell>
        <mxCell id="P6x3jyLfoVuhS7O4_xyp-51" value="&lt;span style=&quot;text-wrap: nowrap;&quot;&gt;Usuario&lt;/span&gt;DAO" style="shape=umlLifeline;perimeter=lifelinePerimeter;whiteSpace=wrap;html=1;container=1;dropTarget=0;collapsible=0;recursiveResize=0;outlineConnect=0;portConstraint=eastwest;newEdgeStyle={&quot;curved&quot;:0,&quot;rounded&quot;:0};" parent="1" vertex="1">
          <mxGeometry x="128" y="697" width="100" height="533" as="geometry" />
        </mxCell>
        <mxCell id="P6x3jyLfoVuhS7O4_xyp-52" value="" style="html=1;points=[[0,0,0,0,5],[0,1,0,0,-5],[1,0,0,0,5],[1,1,0,0,-5]];perimeter=orthogonalPerimeter;outlineConnect=0;targetShapes=umlLifeline;portConstraint=eastwest;newEdgeStyle={&quot;curved&quot;:0,&quot;rounded&quot;:0};" parent="P6x3jyLfoVuhS7O4_xyp-51" vertex="1">
          <mxGeometry x="45" y="407" width="10" height="72.5" as="geometry" />
        </mxCell>
        <mxCell id="P6x3jyLfoVuhS7O4_xyp-53" value="Usuário" style="text;align=center;fontStyle=1;verticalAlign=middle;spacingLeft=3;spacingRight=3;strokeColor=none;rotatable=0;points=[[0,0.5],[1,0.5]];portConstraint=eastwest;html=1;" parent="1" vertex="1">
          <mxGeometry x="-1654" y="670" width="70" height="26" as="geometry" />
        </mxCell>
        <mxCell id="P6x3jyLfoVuhS7O4_xyp-57" value="&lt;span style=&quot;font-size: 12px; text-align: left;&quot;&gt;atualizarPontos()&lt;/span&gt;" style="html=1;verticalAlign=bottom;endArrow=block;curved=0;rounded=0;entryX=0;entryY=0;entryDx=0;entryDy=5;entryPerimeter=0;" parent="1" edge="1">
          <mxGeometry x="0.0417" relative="1" as="geometry">
            <mxPoint x="-261" y="1107" as="sourcePoint" />
            <mxPoint as="offset" />
            <mxPoint x="23" y="1107" as="targetPoint" />
            <Array as="points" />
          </mxGeometry>
        </mxCell>
        <mxCell id="P6x3jyLfoVuhS7O4_xyp-58" value="&lt;span style=&quot;font-size: 12px; text-align: left;&quot;&gt;atualizarPontos()&lt;/span&gt;" style="html=1;verticalAlign=bottom;endArrow=block;curved=0;rounded=0;entryX=0;entryY=0;entryDx=0;entryDy=5;" parent="1" edge="1">
          <mxGeometry x="-0.0598" relative="1" as="geometry">
            <mxPoint x="33" y="1117" as="sourcePoint" />
            <mxPoint as="offset" />
            <mxPoint x="173" y="1117" as="targetPoint" />
          </mxGeometry>
        </mxCell>
        <mxCell id="P6x3jyLfoVuhS7O4_xyp-61" value="Usuário Atualizado" style="html=1;verticalAlign=bottom;endArrow=open;dashed=1;endSize=8;curved=0;rounded=0;exitX=0;exitY=1;exitDx=0;exitDy=-5;exitPerimeter=0;" parent="1" edge="1">
          <mxGeometry x="-0.0417" relative="1" as="geometry">
            <mxPoint x="-261" y="1176" as="targetPoint" />
            <mxPoint as="offset" />
            <mxPoint x="23" y="1176" as="sourcePoint" />
          </mxGeometry>
        </mxCell>
        <mxCell id="P6x3jyLfoVuhS7O4_xyp-62" value="Usuário Atualizado" style="html=1;verticalAlign=bottom;endArrow=open;dashed=1;endSize=8;curved=0;rounded=0;exitX=0;exitY=1;exitDx=0;exitDy=-5;exitPerimeter=0;" parent="1" edge="1">
          <mxGeometry x="-0.0417" relative="1" as="geometry">
            <mxPoint x="33" y="1167" as="targetPoint" />
            <mxPoint as="offset" />
            <mxPoint x="173" y="1167" as="sourcePoint" />
          </mxGeometry>
        </mxCell>
        <mxCell id="P6x3jyLfoVuhS7O4_xyp-64" value="&lt;span style=&quot;font-size: 12px; text-align: left;&quot;&gt;buscar()&lt;/span&gt;" style="html=1;verticalAlign=bottom;endArrow=block;curved=0;rounded=0;" parent="1" edge="1">
          <mxGeometry x="0.7556" relative="1" as="geometry">
            <mxPoint x="-1503.5" y="863" as="sourcePoint" />
            <mxPoint as="offset" />
            <mxPoint x="-816" y="863" as="targetPoint" />
          </mxGeometry>
        </mxCell>
        <mxCell id="P6x3jyLfoVuhS7O4_xyp-65" value="&lt;span style=&quot;font-size: 12px; text-align: left;&quot;&gt;buscar()&lt;/span&gt;" style="html=1;verticalAlign=bottom;endArrow=block;curved=0;rounded=0;" parent="1" edge="1">
          <mxGeometry relative="1" as="geometry">
            <mxPoint x="-806" y="869" as="sourcePoint" />
            <mxPoint as="offset" />
            <mxPoint x="-686" y="869" as="targetPoint" />
          </mxGeometry>
        </mxCell>
        <mxCell id="P6x3jyLfoVuhS7O4_xyp-66" value="&lt;span style=&quot;font-size: 12px; text-align: left;&quot;&gt;buscar()&lt;/span&gt;" style="html=1;verticalAlign=bottom;endArrow=block;curved=0;rounded=0;" parent="1" edge="1">
          <mxGeometry relative="1" as="geometry">
            <mxPoint x="-676" y="876" as="sourcePoint" />
            <mxPoint as="offset" />
            <mxPoint x="-556" y="876" as="targetPoint" />
          </mxGeometry>
        </mxCell>
        <mxCell id="P6x3jyLfoVuhS7O4_xyp-67" value="Reclamações Encontradas" style="html=1;verticalAlign=bottom;endArrow=open;dashed=1;endSize=8;curved=0;rounded=0;" parent="1" edge="1">
          <mxGeometry relative="1" as="geometry">
            <mxPoint x="-676" y="897" as="targetPoint" />
            <mxPoint x="-556" y="897" as="sourcePoint" />
          </mxGeometry>
        </mxCell>
        <mxCell id="P6x3jyLfoVuhS7O4_xyp-68" value="Reclamações Encontradas" style="html=1;verticalAlign=bottom;endArrow=open;dashed=1;endSize=8;curved=0;rounded=0;" parent="1" edge="1">
          <mxGeometry relative="1" as="geometry">
            <mxPoint x="-806" y="907" as="targetPoint" />
            <mxPoint x="-686" y="907" as="sourcePoint" />
          </mxGeometry>
        </mxCell>
        <mxCell id="P6x3jyLfoVuhS7O4_xyp-69" value="Reclamações Encontradas" style="html=1;verticalAlign=bottom;endArrow=open;dashed=1;endSize=8;curved=0;rounded=0;" parent="1" source="P6x3jyLfoVuhS7O4_xyp-47" edge="1">
          <mxGeometry x="0.4498" y="5" relative="1" as="geometry">
            <mxPoint x="-1504" y="922" as="targetPoint" />
            <mxPoint x="-1076" y="922" as="sourcePoint" />
            <mxPoint as="offset" />
          </mxGeometry>
        </mxCell>
        <mxCell id="P6x3jyLfoVuhS7O4_xyp-70" value="&lt;span style=&quot;font-family: Helvetica; font-size: 12px; font-style: normal; font-variant-ligatures: normal; font-variant-caps: normal; font-weight: 400; letter-spacing: normal; orphans: 2; text-align: center; text-indent: 0px; text-transform: none; widows: 2; word-spacing: 0px; -webkit-text-stroke-width: 0px; white-space: nowrap; text-decoration-thickness: initial; text-decoration-style: initial; text-decoration-color: initial; float: none; display: inline !important;&quot;&gt;Curtida&lt;/span&gt;" style="shape=umlLifeline;perimeter=lifelinePerimeter;whiteSpace=wrap;html=1;container=1;dropTarget=0;collapsible=0;recursiveResize=0;outlineConnect=0;portConstraint=eastwest;newEdgeStyle={&quot;curved&quot;:0,&quot;rounded&quot;:0};" parent="1" vertex="1">
          <mxGeometry x="-316" y="697" width="100" height="533" as="geometry" />
        </mxCell>
        <mxCell id="P6x3jyLfoVuhS7O4_xyp-71" value="" style="html=1;points=[[0,0,0,0,5],[0,1,0,0,-5],[1,0,0,0,5],[1,1,0,0,-5]];perimeter=orthogonalPerimeter;outlineConnect=0;targetShapes=umlLifeline;portConstraint=eastwest;newEdgeStyle={&quot;curved&quot;:0,&quot;rounded&quot;:0};" parent="P6x3jyLfoVuhS7O4_xyp-70" vertex="1">
          <mxGeometry x="45" y="240" width="10" height="270" as="geometry" />
        </mxCell>
        <mxCell id="P6x3jyLfoVuhS7O4_xyp-72" value="&lt;span style=&quot;text-wrap: nowrap;&quot;&gt;CurtidaCtr&lt;/span&gt;" style="shape=umlLifeline;perimeter=lifelinePerimeter;whiteSpace=wrap;html=1;container=1;dropTarget=0;collapsible=0;recursiveResize=0;outlineConnect=0;portConstraint=eastwest;newEdgeStyle={&quot;curved&quot;:0,&quot;rounded&quot;:0};" parent="1" vertex="1">
          <mxGeometry x="-476" y="697" width="100" height="533" as="geometry" />
        </mxCell>
        <mxCell id="P6x3jyLfoVuhS7O4_xyp-73" value="" style="html=1;points=[[0,0,0,0,5],[0,1,0,0,-5],[1,0,0,0,5],[1,1,0,0,-5]];perimeter=orthogonalPerimeter;outlineConnect=0;targetShapes=umlLifeline;portConstraint=eastwest;newEdgeStyle={&quot;curved&quot;:0,&quot;rounded&quot;:0};" parent="P6x3jyLfoVuhS7O4_xyp-72" vertex="1">
          <mxGeometry x="45" y="240" width="10" height="280" as="geometry" />
        </mxCell>
        <mxCell id="P6x3jyLfoVuhS7O4_xyp-74" value="&lt;div style=&quot;text-align: left;&quot;&gt;curtir&lt;span style=&quot;font-size: 12px;&quot;&gt;()&lt;/span&gt;&lt;br&gt;&lt;/div&gt;" style="html=1;verticalAlign=bottom;endArrow=block;curved=0;rounded=0;" parent="1" edge="1">
          <mxGeometry x="0.0027" relative="1" as="geometry">
            <mxPoint x="-419" y="957" as="sourcePoint" />
            <mxPoint as="offset" />
            <mxPoint x="-269" y="957" as="targetPoint" />
          </mxGeometry>
        </mxCell>
        <mxCell id="P6x3jyLfoVuhS7O4_xyp-76" value="&lt;span style=&quot;font-family: Helvetica; font-size: 12px; font-style: normal; font-variant-ligatures: normal; font-variant-caps: normal; font-weight: 400; letter-spacing: normal; orphans: 2; text-align: center; text-indent: 0px; text-transform: none; widows: 2; word-spacing: 0px; -webkit-text-stroke-width: 0px; white-space: nowrap; text-decoration-thickness: initial; text-decoration-style: initial; text-decoration-color: initial; float: none; display: inline !important;&quot;&gt;CurtidaDAO&lt;/span&gt;" style="shape=umlLifeline;perimeter=lifelinePerimeter;whiteSpace=wrap;html=1;container=1;dropTarget=0;collapsible=0;recursiveResize=0;outlineConnect=0;portConstraint=eastwest;newEdgeStyle={&quot;curved&quot;:0,&quot;rounded&quot;:0};" parent="1" vertex="1">
          <mxGeometry x="-176" y="697" width="100" height="533" as="geometry" />
        </mxCell>
        <mxCell id="P6x3jyLfoVuhS7O4_xyp-77" value="" style="html=1;points=[[0,0,0,0,5],[0,1,0,0,-5],[1,0,0,0,5],[1,1,0,0,-5]];perimeter=orthogonalPerimeter;outlineConnect=0;targetShapes=umlLifeline;portConstraint=eastwest;newEdgeStyle={&quot;curved&quot;:0,&quot;rounded&quot;:0};" parent="P6x3jyLfoVuhS7O4_xyp-76" vertex="1">
          <mxGeometry x="45" y="240" width="10" height="110" as="geometry" />
        </mxCell>
        <mxCell id="P6x3jyLfoVuhS7O4_xyp-78" value="&lt;div style=&quot;text-align: left;&quot;&gt;curtir&lt;span style=&quot;font-size: 12px;&quot;&gt;()&lt;/span&gt;&lt;br&gt;&lt;/div&gt;" style="html=1;verticalAlign=bottom;endArrow=block;curved=0;rounded=0;" parent="1" edge="1">
          <mxGeometry relative="1" as="geometry">
            <mxPoint x="-261" y="967" as="sourcePoint" />
            <mxPoint as="offset" />
            <mxPoint x="-131" y="967" as="targetPoint" />
          </mxGeometry>
        </mxCell>
        <mxCell id="P6x3jyLfoVuhS7O4_xyp-79" value="Curtida Computada" style="html=1;verticalAlign=bottom;endArrow=open;dashed=1;endSize=8;curved=0;rounded=0;" parent="1" edge="1">
          <mxGeometry x="-0.0345" y="20" relative="1" as="geometry">
            <mxPoint x="-261" y="1027" as="targetPoint" />
            <mxPoint x="-131" y="1027" as="sourcePoint" />
            <mxPoint as="offset" />
          </mxGeometry>
        </mxCell>
        <mxCell id="P6x3jyLfoVuhS7O4_xyp-80" style="edgeStyle=orthogonalEdgeStyle;rounded=0;orthogonalLoop=1;jettySize=auto;html=1;curved=0;dashed=1;" parent="1" target="P6x3jyLfoVuhS7O4_xyp-73" edge="1">
          <mxGeometry relative="1" as="geometry">
            <mxPoint x="-271" y="1187.0000000000002" as="sourcePoint" />
            <mxPoint x="-422" y="1186.9965217391305" as="targetPoint" />
            <Array as="points">
              <mxPoint x="-346" y="1187" />
              <mxPoint x="-346" y="1188" />
            </Array>
          </mxGeometry>
        </mxCell>
        <mxCell id="P6x3jyLfoVuhS7O4_xyp-84" value="Curtida Computada" style="edgeLabel;html=1;align=center;verticalAlign=middle;resizable=0;points=[];" parent="P6x3jyLfoVuhS7O4_xyp-80" vertex="1" connectable="0">
          <mxGeometry x="0.3522" relative="1" as="geometry">
            <mxPoint x="31" y="-10" as="offset" />
          </mxGeometry>
        </mxCell>
        <mxCell id="P6x3jyLfoVuhS7O4_xyp-82" style="edgeStyle=orthogonalEdgeStyle;rounded=0;orthogonalLoop=1;jettySize=auto;html=1;curved=0;dashed=1;" parent="1" source="P6x3jyLfoVuhS7O4_xyp-73" edge="1">
          <mxGeometry relative="1" as="geometry">
            <mxPoint x="-989" y="1200.0034782608695" as="sourcePoint" />
            <mxPoint x="-1504" y="1200.0000000000002" as="targetPoint" />
            <Array as="points">
              <mxPoint x="-1170" y="1200" />
              <mxPoint x="-1170" y="1200" />
            </Array>
          </mxGeometry>
        </mxCell>
        <mxCell id="P6x3jyLfoVuhS7O4_xyp-85" value="Curtida Computada" style="edgeLabel;html=1;align=center;verticalAlign=middle;resizable=0;points=[];" parent="P6x3jyLfoVuhS7O4_xyp-82" vertex="1" connectable="0">
          <mxGeometry x="0.2509" relative="1" as="geometry">
            <mxPoint x="280" y="-9" as="offset" />
          </mxGeometry>
        </mxCell>
        <mxCell id="P6x3jyLfoVuhS7O4_xyp-89" value="&lt;div style=&quot;text-align: left;&quot;&gt;curtir&lt;span style=&quot;font-size: 12px;&quot;&gt;()&lt;/span&gt;&lt;br&gt;&lt;/div&gt;" style="html=1;verticalAlign=bottom;endArrow=block;curved=0;rounded=0;" parent="1" target="P6x3jyLfoVuhS7O4_xyp-73" edge="1">
          <mxGeometry x="0.1806" relative="1" as="geometry">
            <mxPoint x="-1504" y="950" as="sourcePoint" />
            <mxPoint as="offset" />
            <mxPoint x="-989" y="950" as="targetPoint" />
          </mxGeometry>
        </mxCell>
        <mxCell id="EJXAhbPzqxiQPlRAI5tO-1" value="«API»&lt;br&gt;&lt;b&gt;Google Maps&lt;/b&gt;" style="shape=umlLifeline;perimeter=lifelinePerimeter;whiteSpace=wrap;html=1;container=1;dropTarget=0;collapsible=0;recursiveResize=0;outlineConnect=0;portConstraint=eastwest;newEdgeStyle={&quot;curved&quot;:0,&quot;rounded&quot;:0};" parent="1" vertex="1">
          <mxGeometry x="-987.0799999999999" y="200" width="120" height="420" as="geometry" />
        </mxCell>
        <mxCell id="EJXAhbPzqxiQPlRAI5tO-2" value="" style="html=1;points=[[0,0,0,0,5],[0,1,0,0,-5],[1,0,0,0,5],[1,1,0,0,-5]];perimeter=orthogonalPerimeter;outlineConnect=0;targetShapes=umlLifeline;portConstraint=eastwest;newEdgeStyle={&quot;curved&quot;:0,&quot;rounded&quot;:0};" parent="EJXAhbPzqxiQPlRAI5tO-1" vertex="1">
          <mxGeometry x="55" y="80" width="10" height="80" as="geometry" />
        </mxCell>
        <mxCell id="EJXAhbPzqxiQPlRAI5tO-5" style="edgeStyle=orthogonalEdgeStyle;rounded=0;orthogonalLoop=1;jettySize=auto;html=1;curved=0;dashed=1;endArrow=open;endFill=0;" parent="1" target="8U9UIuRIRXzJbzT-PRCx-6" edge="1">
          <mxGeometry relative="1" as="geometry">
            <mxPoint x="-932.0799999999999" y="339" as="sourcePoint" />
            <Array as="points">
              <mxPoint x="-932" y="340" />
            </Array>
            <mxPoint x="-1225" y="339" as="targetPoint" />
          </mxGeometry>
        </mxCell>
        <mxCell id="EJXAhbPzqxiQPlRAI5tO-6" value="Retorna coordenadas" style="edgeLabel;html=1;align=center;verticalAlign=middle;resizable=0;points=[];" parent="EJXAhbPzqxiQPlRAI5tO-5" vertex="1" connectable="0">
          <mxGeometry x="0.212" relative="1" as="geometry">
            <mxPoint x="119" as="offset" />
          </mxGeometry>
        </mxCell>
        <mxCell id="EJXAhbPzqxiQPlRAI5tO-15" value="«View»&lt;br&gt;&lt;b&gt;TelaCriarReclamação&lt;/b&gt;" style="shape=umlLifeline;perimeter=lifelinePerimeter;whiteSpace=wrap;html=1;container=1;dropTarget=0;collapsible=0;recursiveResize=0;outlineConnect=0;portConstraint=eastwest;newEdgeStyle={&quot;curved&quot;:0,&quot;rounded&quot;:0};" parent="1" vertex="1">
          <mxGeometry x="-1569" y="696" width="120" height="534" as="geometry" />
        </mxCell>
        <mxCell id="EJXAhbPzqxiQPlRAI5tO-16" value="" style="html=1;points=[[0,0,0,0,5],[0,1,0,0,-5],[1,0,0,0,5],[1,1,0,0,-5]];perimeter=orthogonalPerimeter;outlineConnect=0;targetShapes=umlLifeline;portConstraint=eastwest;newEdgeStyle={&quot;curved&quot;:0,&quot;rounded&quot;:0};" parent="EJXAhbPzqxiQPlRAI5tO-15" vertex="1">
          <mxGeometry x="55" y="80" width="10" height="430" as="geometry" />
        </mxCell>
        <mxCell id="EJXAhbPzqxiQPlRAI5tO-36" value="«API»&lt;br&gt;&lt;b&gt;ViaCEP&lt;/b&gt;" style="shape=umlLifeline;perimeter=lifelinePerimeter;whiteSpace=wrap;html=1;container=1;dropTarget=0;collapsible=0;recursiveResize=0;outlineConnect=0;portConstraint=eastwest;newEdgeStyle={&quot;curved&quot;:0,&quot;rounded&quot;:0};" parent="1" vertex="1">
          <mxGeometry x="-1146.75" y="200" width="130" height="420" as="geometry" />
        </mxCell>
        <mxCell id="EJXAhbPzqxiQPlRAI5tO-37" value="" style="html=1;points=[[0,0,0,0,5],[0,1,0,0,-5],[1,0,0,0,5],[1,1,0,0,-5]];perimeter=orthogonalPerimeter;outlineConnect=0;targetShapes=umlLifeline;portConstraint=eastwest;newEdgeStyle={&quot;curved&quot;:0,&quot;rounded&quot;:0};" parent="EJXAhbPzqxiQPlRAI5tO-36" vertex="1">
          <mxGeometry x="60" y="80" width="10" height="30" as="geometry" />
        </mxCell>
        <mxCell id="EJXAhbPzqxiQPlRAI5tO-40" style="edgeStyle=orthogonalEdgeStyle;rounded=0;orthogonalLoop=1;jettySize=auto;html=1;curved=0;dashed=1;endArrow=open;endFill=0;" parent="1" source="EJXAhbPzqxiQPlRAI5tO-37" edge="1" target="8U9UIuRIRXzJbzT-PRCx-6">
          <mxGeometry relative="1" as="geometry">
            <mxPoint x="-1340" y="220" as="sourcePoint" />
            <mxPoint x="-1504" y="300" as="targetPoint" />
            <Array as="points">
              <mxPoint x="-1120" y="300" />
              <mxPoint x="-1120" y="300" />
            </Array>
          </mxGeometry>
        </mxCell>
        <mxCell id="EJXAhbPzqxiQPlRAI5tO-41" value="Retorno endereço" style="edgeLabel;html=1;align=center;verticalAlign=middle;resizable=0;points=[];" parent="EJXAhbPzqxiQPlRAI5tO-40" vertex="1" connectable="0">
          <mxGeometry x="0.1543" y="1" relative="1" as="geometry">
            <mxPoint x="12" y="-1" as="offset" />
          </mxGeometry>
        </mxCell>
        <mxCell id="8U9UIuRIRXzJbzT-PRCx-1" style="edgeStyle=orthogonalEdgeStyle;rounded=0;orthogonalLoop=1;jettySize=auto;html=1;curved=0;" edge="1" parent="1" source="8U9UIuRIRXzJbzT-PRCx-6" target="EJXAhbPzqxiQPlRAI5tO-37">
          <mxGeometry relative="1" as="geometry">
            <mxPoint x="-1220" y="310" as="sourcePoint" />
            <mxPoint x="-1100" y="315" as="targetPoint" />
            <Array as="points">
              <mxPoint x="-1160" y="295" />
              <mxPoint x="-1160" y="295" />
            </Array>
          </mxGeometry>
        </mxCell>
        <mxCell id="8U9UIuRIRXzJbzT-PRCx-2" value="Consulta CEP" style="edgeLabel;html=1;align=center;verticalAlign=middle;resizable=0;points=[];" vertex="1" connectable="0" parent="8U9UIuRIRXzJbzT-PRCx-1">
          <mxGeometry x="-0.2558" y="1" relative="1" as="geometry">
            <mxPoint x="1" y="-9" as="offset" />
          </mxGeometry>
        </mxCell>
        <mxCell id="8U9UIuRIRXzJbzT-PRCx-5" value="&lt;span style=&quot;font-family: Helvetica; font-size: 12px; font-style: normal; font-variant-ligatures: normal; font-variant-caps: normal; font-weight: 400; letter-spacing: normal; orphans: 2; text-align: center; text-indent: 0px; text-transform: none; widows: 2; word-spacing: 0px; -webkit-text-stroke-width: 0px; white-space: nowrap; text-decoration-thickness: initial; text-decoration-style: initial; text-decoration-color: initial; float: none; display: inline !important;&quot;&gt;Localizacao&lt;/span&gt;" style="shape=umlLifeline;perimeter=lifelinePerimeter;whiteSpace=wrap;html=1;container=1;dropTarget=0;collapsible=0;recursiveResize=0;outlineConnect=0;portConstraint=eastwest;newEdgeStyle={&quot;curved&quot;:0,&quot;rounded&quot;:0};" vertex="1" parent="1">
          <mxGeometry x="-1280" y="200" width="100" height="420" as="geometry" />
        </mxCell>
        <mxCell id="8U9UIuRIRXzJbzT-PRCx-6" value="" style="html=1;points=[[0,0,0,0,5],[0,1,0,0,-5],[1,0,0,0,5],[1,1,0,0,-5]];perimeter=orthogonalPerimeter;outlineConnect=0;targetShapes=umlLifeline;portConstraint=eastwest;newEdgeStyle={&quot;curved&quot;:0,&quot;rounded&quot;:0};" vertex="1" parent="8U9UIuRIRXzJbzT-PRCx-5">
          <mxGeometry x="45" y="80" width="10" height="70" as="geometry" />
        </mxCell>
        <mxCell id="8U9UIuRIRXzJbzT-PRCx-7" value="&lt;span style=&quot;text-wrap: nowrap;&quot;&gt;LocalizacaoCtr&lt;/span&gt;" style="shape=umlLifeline;perimeter=lifelinePerimeter;whiteSpace=wrap;html=1;container=1;dropTarget=0;collapsible=0;recursiveResize=0;outlineConnect=0;portConstraint=eastwest;newEdgeStyle={&quot;curved&quot;:0,&quot;rounded&quot;:0};" vertex="1" parent="1">
          <mxGeometry x="-1410" y="200" width="100" height="420" as="geometry" />
        </mxCell>
        <mxCell id="8U9UIuRIRXzJbzT-PRCx-8" value="" style="html=1;points=[[0,0,0,0,5],[0,1,0,0,-5],[1,0,0,0,5],[1,1,0,0,-5]];perimeter=orthogonalPerimeter;outlineConnect=0;targetShapes=umlLifeline;portConstraint=eastwest;newEdgeStyle={&quot;curved&quot;:0,&quot;rounded&quot;:0};" vertex="1" parent="8U9UIuRIRXzJbzT-PRCx-7">
          <mxGeometry x="45" y="80" width="10" height="80" as="geometry" />
        </mxCell>
        <mxCell id="8U9UIuRIRXzJbzT-PRCx-9" value="&lt;span style=&quot;font-size: 12px; text-align: left;&quot;&gt;Consultar CEP&lt;/span&gt;" style="html=1;verticalAlign=bottom;endArrow=block;curved=0;rounded=0;" edge="1" parent="1">
          <mxGeometry relative="1" as="geometry">
            <mxPoint x="-1355" y="293" as="sourcePoint" />
            <mxPoint as="offset" />
            <mxPoint x="-1235" y="293" as="targetPoint" />
          </mxGeometry>
        </mxCell>
        <mxCell id="8U9UIuRIRXzJbzT-PRCx-10" value="Retorno Endereço" style="html=1;verticalAlign=bottom;endArrow=open;dashed=1;endSize=8;curved=0;rounded=0;" edge="1" parent="1">
          <mxGeometry x="-0.0833" y="5" relative="1" as="geometry">
            <mxPoint x="-1355.0000000000002" y="305" as="targetPoint" />
            <mxPoint as="offset" />
            <mxPoint x="-1235.0000000000002" y="305" as="sourcePoint" />
            <Array as="points">
              <mxPoint x="-1285" y="305" />
            </Array>
          </mxGeometry>
        </mxCell>
        <mxCell id="8U9UIuRIRXzJbzT-PRCx-11" value="&lt;span style=&quot;font-size: 12px; text-align: left;&quot;&gt;Consultar CEP&lt;/span&gt;" style="html=1;verticalAlign=bottom;endArrow=block;curved=0;rounded=0;" edge="1" parent="1" source="8YJoVrMXhFkuWjcxH3iJ-11">
          <mxGeometry relative="1" as="geometry">
            <mxPoint x="-1500" y="290" as="sourcePoint" />
            <mxPoint as="offset" />
            <mxPoint x="-1365" y="290" as="targetPoint" />
          </mxGeometry>
        </mxCell>
        <mxCell id="8U9UIuRIRXzJbzT-PRCx-12" value="Retorno Endereço" style="html=1;verticalAlign=bottom;endArrow=open;dashed=1;endSize=8;curved=0;rounded=0;" edge="1" parent="1" target="8YJoVrMXhFkuWjcxH3iJ-11">
          <mxGeometry x="0.25" relative="1" as="geometry">
            <mxPoint x="-1500" y="309" as="targetPoint" />
            <mxPoint as="offset" />
            <mxPoint x="-1365.0000000000002" y="309" as="sourcePoint" />
            <Array as="points">
              <mxPoint x="-1425" y="309" />
            </Array>
          </mxGeometry>
        </mxCell>
        <mxCell id="8U9UIuRIRXzJbzT-PRCx-13" value="&lt;div style=&quot;text-align: left;&quot;&gt;&lt;span style=&quot;font-size: 12px;&quot;&gt;Seleciona Localiação&lt;/span&gt;&lt;/div&gt;" style="html=1;verticalAlign=bottom;endArrow=block;curved=0;rounded=0;" edge="1" parent="1">
          <mxGeometry x="0.0647" y="-7" relative="1" as="geometry">
            <mxPoint x="-1504" y="323" as="sourcePoint" />
            <mxPoint as="offset" />
            <mxPoint x="-1365" y="323" as="targetPoint" />
          </mxGeometry>
        </mxCell>
        <mxCell id="8U9UIuRIRXzJbzT-PRCx-14" value="&lt;div style=&quot;text-align: left;&quot;&gt;&lt;span style=&quot;font-size: 12px;&quot;&gt;Seleciona Localiação&lt;/span&gt;&lt;/div&gt;" style="html=1;verticalAlign=bottom;endArrow=block;curved=0;rounded=0;" edge="1" parent="1">
          <mxGeometry x="0.0647" y="-7" relative="1" as="geometry">
            <mxPoint x="-1355" y="326" as="sourcePoint" />
            <mxPoint as="offset" />
            <mxPoint x="-1235" y="326" as="targetPoint" />
          </mxGeometry>
        </mxCell>
        <mxCell id="8U9UIuRIRXzJbzT-PRCx-15" value="&lt;div style=&quot;text-align: left;&quot;&gt;&lt;span style=&quot;font-size: 12px;&quot;&gt;Seleciona Localiação&lt;/span&gt;&lt;/div&gt;" style="html=1;verticalAlign=bottom;endArrow=block;curved=0;rounded=0;" edge="1" parent="1">
          <mxGeometry x="0.5294" y="-5" relative="1" as="geometry">
            <mxPoint x="-1224" y="329" as="sourcePoint" />
            <mxPoint as="offset" />
            <mxPoint x="-931.0799999999999" y="329" as="targetPoint" />
          </mxGeometry>
        </mxCell>
        <mxCell id="8U9UIuRIRXzJbzT-PRCx-16" style="edgeStyle=orthogonalEdgeStyle;rounded=0;orthogonalLoop=1;jettySize=auto;html=1;curved=0;dashed=1;endArrow=open;endFill=0;" edge="1" parent="1">
          <mxGeometry relative="1" as="geometry">
            <mxPoint x="-1235" y="346.9999999999999" as="sourcePoint" />
            <Array as="points" />
            <mxPoint x="-1355" y="346.9999999999999" as="targetPoint" />
          </mxGeometry>
        </mxCell>
        <mxCell id="8U9UIuRIRXzJbzT-PRCx-17" value="Retorna coordenadas" style="edgeLabel;html=1;align=center;verticalAlign=middle;resizable=0;points=[];" vertex="1" connectable="0" parent="8U9UIuRIRXzJbzT-PRCx-16">
          <mxGeometry x="0.212" relative="1" as="geometry">
            <mxPoint x="15" as="offset" />
          </mxGeometry>
        </mxCell>
        <mxCell id="8U9UIuRIRXzJbzT-PRCx-18" style="edgeStyle=orthogonalEdgeStyle;rounded=0;orthogonalLoop=1;jettySize=auto;html=1;curved=0;dashed=1;endArrow=open;endFill=0;" edge="1" parent="1" source="8U9UIuRIRXzJbzT-PRCx-8" target="8YJoVrMXhFkuWjcxH3iJ-11">
          <mxGeometry relative="1" as="geometry">
            <mxPoint x="-1370" y="356.9999999999999" as="sourcePoint" />
            <Array as="points">
              <mxPoint x="-1460" y="358" />
              <mxPoint x="-1460" y="358" />
            </Array>
            <mxPoint x="-1490" y="356.9999999999999" as="targetPoint" />
          </mxGeometry>
        </mxCell>
        <mxCell id="8U9UIuRIRXzJbzT-PRCx-19" value="Retorna coordenadas" style="edgeLabel;html=1;align=center;verticalAlign=middle;resizable=0;points=[];" vertex="1" connectable="0" parent="8U9UIuRIRXzJbzT-PRCx-18">
          <mxGeometry x="0.212" relative="1" as="geometry">
            <mxPoint x="15" y="-5" as="offset" />
          </mxGeometry>
        </mxCell>
        <mxCell id="8U9UIuRIRXzJbzT-PRCx-72" value="«API»&lt;br&gt;&lt;b&gt;Google Maps&lt;/b&gt;" style="shape=umlLifeline;perimeter=lifelinePerimeter;whiteSpace=wrap;html=1;container=1;dropTarget=0;collapsible=0;recursiveResize=0;outlineConnect=0;portConstraint=eastwest;newEdgeStyle={&quot;curved&quot;:0,&quot;rounded&quot;:0};" vertex="1" parent="1">
          <mxGeometry x="-998.5" y="697" width="120" height="533" as="geometry" />
        </mxCell>
        <mxCell id="8U9UIuRIRXzJbzT-PRCx-73" value="" style="html=1;points=[[0,0,0,0,5],[0,1,0,0,-5],[1,0,0,0,5],[1,1,0,0,-5]];perimeter=orthogonalPerimeter;outlineConnect=0;targetShapes=umlLifeline;portConstraint=eastwest;newEdgeStyle={&quot;curved&quot;:0,&quot;rounded&quot;:0};" vertex="1" parent="8U9UIuRIRXzJbzT-PRCx-72">
          <mxGeometry x="55" y="80" width="10" height="80" as="geometry" />
        </mxCell>
        <mxCell id="8U9UIuRIRXzJbzT-PRCx-74" style="edgeStyle=orthogonalEdgeStyle;rounded=0;orthogonalLoop=1;jettySize=auto;html=1;curved=0;dashed=1;endArrow=open;endFill=0;" edge="1" parent="1" target="8U9UIuRIRXzJbzT-PRCx-83">
          <mxGeometry relative="1" as="geometry">
            <mxPoint x="-943.4999999999999" y="836" as="sourcePoint" />
            <Array as="points">
              <mxPoint x="-943.42" y="837" />
            </Array>
            <mxPoint x="-1236.42" y="836" as="targetPoint" />
          </mxGeometry>
        </mxCell>
        <mxCell id="8U9UIuRIRXzJbzT-PRCx-75" value="Retorna coordenadas" style="edgeLabel;html=1;align=center;verticalAlign=middle;resizable=0;points=[];" vertex="1" connectable="0" parent="8U9UIuRIRXzJbzT-PRCx-74">
          <mxGeometry x="0.212" relative="1" as="geometry">
            <mxPoint x="119" as="offset" />
          </mxGeometry>
        </mxCell>
        <mxCell id="8U9UIuRIRXzJbzT-PRCx-76" value="«API»&lt;br&gt;&lt;b&gt;ViaCEP&lt;/b&gt;" style="shape=umlLifeline;perimeter=lifelinePerimeter;whiteSpace=wrap;html=1;container=1;dropTarget=0;collapsible=0;recursiveResize=0;outlineConnect=0;portConstraint=eastwest;newEdgeStyle={&quot;curved&quot;:0,&quot;rounded&quot;:0};" vertex="1" parent="1">
          <mxGeometry x="-1158.17" y="697" width="130" height="533" as="geometry" />
        </mxCell>
        <mxCell id="8U9UIuRIRXzJbzT-PRCx-77" value="" style="html=1;points=[[0,0,0,0,5],[0,1,0,0,-5],[1,0,0,0,5],[1,1,0,0,-5]];perimeter=orthogonalPerimeter;outlineConnect=0;targetShapes=umlLifeline;portConstraint=eastwest;newEdgeStyle={&quot;curved&quot;:0,&quot;rounded&quot;:0};" vertex="1" parent="8U9UIuRIRXzJbzT-PRCx-76">
          <mxGeometry x="60" y="80" width="10" height="30" as="geometry" />
        </mxCell>
        <mxCell id="8U9UIuRIRXzJbzT-PRCx-78" style="edgeStyle=orthogonalEdgeStyle;rounded=0;orthogonalLoop=1;jettySize=auto;html=1;curved=0;dashed=1;endArrow=open;endFill=0;" edge="1" parent="1" source="8U9UIuRIRXzJbzT-PRCx-77" target="8U9UIuRIRXzJbzT-PRCx-83">
          <mxGeometry relative="1" as="geometry">
            <mxPoint x="-1351.42" y="717" as="sourcePoint" />
            <mxPoint x="-1515.42" y="797" as="targetPoint" />
            <Array as="points">
              <mxPoint x="-1131.42" y="797" />
              <mxPoint x="-1131.42" y="797" />
            </Array>
          </mxGeometry>
        </mxCell>
        <mxCell id="8U9UIuRIRXzJbzT-PRCx-79" value="Retorno endereço" style="edgeLabel;html=1;align=center;verticalAlign=middle;resizable=0;points=[];" vertex="1" connectable="0" parent="8U9UIuRIRXzJbzT-PRCx-78">
          <mxGeometry x="0.1543" y="1" relative="1" as="geometry">
            <mxPoint x="12" y="-1" as="offset" />
          </mxGeometry>
        </mxCell>
        <mxCell id="8U9UIuRIRXzJbzT-PRCx-80" style="edgeStyle=orthogonalEdgeStyle;rounded=0;orthogonalLoop=1;jettySize=auto;html=1;curved=0;" edge="1" parent="1" source="8U9UIuRIRXzJbzT-PRCx-83" target="8U9UIuRIRXzJbzT-PRCx-77">
          <mxGeometry relative="1" as="geometry">
            <mxPoint x="-1231.42" y="807" as="sourcePoint" />
            <mxPoint x="-1111.42" y="812" as="targetPoint" />
            <Array as="points">
              <mxPoint x="-1171.42" y="792" />
              <mxPoint x="-1171.42" y="792" />
            </Array>
          </mxGeometry>
        </mxCell>
        <mxCell id="8U9UIuRIRXzJbzT-PRCx-81" value="Consulta CEP" style="edgeLabel;html=1;align=center;verticalAlign=middle;resizable=0;points=[];" vertex="1" connectable="0" parent="8U9UIuRIRXzJbzT-PRCx-80">
          <mxGeometry x="-0.2558" y="1" relative="1" as="geometry">
            <mxPoint x="1" y="-9" as="offset" />
          </mxGeometry>
        </mxCell>
        <mxCell id="8U9UIuRIRXzJbzT-PRCx-82" value="&lt;span style=&quot;font-family: Helvetica; font-size: 12px; font-style: normal; font-variant-ligatures: normal; font-variant-caps: normal; font-weight: 400; letter-spacing: normal; orphans: 2; text-align: center; text-indent: 0px; text-transform: none; widows: 2; word-spacing: 0px; -webkit-text-stroke-width: 0px; white-space: nowrap; text-decoration-thickness: initial; text-decoration-style: initial; text-decoration-color: initial; float: none; display: inline !important;&quot;&gt;Localizacao&lt;/span&gt;" style="shape=umlLifeline;perimeter=lifelinePerimeter;whiteSpace=wrap;html=1;container=1;dropTarget=0;collapsible=0;recursiveResize=0;outlineConnect=0;portConstraint=eastwest;newEdgeStyle={&quot;curved&quot;:0,&quot;rounded&quot;:0};" vertex="1" parent="1">
          <mxGeometry x="-1291.42" y="697" width="100" height="533" as="geometry" />
        </mxCell>
        <mxCell id="8U9UIuRIRXzJbzT-PRCx-83" value="" style="html=1;points=[[0,0,0,0,5],[0,1,0,0,-5],[1,0,0,0,5],[1,1,0,0,-5]];perimeter=orthogonalPerimeter;outlineConnect=0;targetShapes=umlLifeline;portConstraint=eastwest;newEdgeStyle={&quot;curved&quot;:0,&quot;rounded&quot;:0};" vertex="1" parent="8U9UIuRIRXzJbzT-PRCx-82">
          <mxGeometry x="45" y="80" width="10" height="70" as="geometry" />
        </mxCell>
        <mxCell id="8U9UIuRIRXzJbzT-PRCx-84" value="&lt;span style=&quot;text-wrap: nowrap;&quot;&gt;LocalizacaoCtr&lt;/span&gt;" style="shape=umlLifeline;perimeter=lifelinePerimeter;whiteSpace=wrap;html=1;container=1;dropTarget=0;collapsible=0;recursiveResize=0;outlineConnect=0;portConstraint=eastwest;newEdgeStyle={&quot;curved&quot;:0,&quot;rounded&quot;:0};" vertex="1" parent="1">
          <mxGeometry x="-1421.42" y="697" width="100" height="533" as="geometry" />
        </mxCell>
        <mxCell id="8U9UIuRIRXzJbzT-PRCx-85" value="" style="html=1;points=[[0,0,0,0,5],[0,1,0,0,-5],[1,0,0,0,5],[1,1,0,0,-5]];perimeter=orthogonalPerimeter;outlineConnect=0;targetShapes=umlLifeline;portConstraint=eastwest;newEdgeStyle={&quot;curved&quot;:0,&quot;rounded&quot;:0};" vertex="1" parent="8U9UIuRIRXzJbzT-PRCx-84">
          <mxGeometry x="45" y="80" width="10" height="80" as="geometry" />
        </mxCell>
        <mxCell id="8U9UIuRIRXzJbzT-PRCx-86" value="&lt;span style=&quot;font-size: 12px; text-align: left;&quot;&gt;Consultar CEP&lt;/span&gt;" style="html=1;verticalAlign=bottom;endArrow=block;curved=0;rounded=0;" edge="1" parent="1">
          <mxGeometry relative="1" as="geometry">
            <mxPoint x="-1366.42" y="790" as="sourcePoint" />
            <mxPoint as="offset" />
            <mxPoint x="-1246.42" y="790" as="targetPoint" />
          </mxGeometry>
        </mxCell>
        <mxCell id="8U9UIuRIRXzJbzT-PRCx-87" value="Retorno Endereço" style="html=1;verticalAlign=bottom;endArrow=open;dashed=1;endSize=8;curved=0;rounded=0;" edge="1" parent="1">
          <mxGeometry x="-0.0833" y="5" relative="1" as="geometry">
            <mxPoint x="-1366.4200000000003" y="802" as="targetPoint" />
            <mxPoint as="offset" />
            <mxPoint x="-1246.4200000000003" y="802" as="sourcePoint" />
            <Array as="points">
              <mxPoint x="-1296.42" y="802" />
            </Array>
          </mxGeometry>
        </mxCell>
        <mxCell id="8U9UIuRIRXzJbzT-PRCx-88" value="&lt;span style=&quot;font-size: 12px; text-align: left;&quot;&gt;Consultar CEP&lt;/span&gt;" style="html=1;verticalAlign=bottom;endArrow=block;curved=0;rounded=0;" edge="1" parent="1" source="EJXAhbPzqxiQPlRAI5tO-16">
          <mxGeometry relative="1" as="geometry">
            <mxPoint x="-1515.42" y="787" as="sourcePoint" />
            <mxPoint as="offset" />
            <mxPoint x="-1376.42" y="787" as="targetPoint" />
          </mxGeometry>
        </mxCell>
        <mxCell id="8U9UIuRIRXzJbzT-PRCx-89" value="Retorno Endereço" style="html=1;verticalAlign=bottom;endArrow=open;dashed=1;endSize=8;curved=0;rounded=0;" edge="1" parent="1" target="EJXAhbPzqxiQPlRAI5tO-16">
          <mxGeometry x="-0.0033" y="4" relative="1" as="geometry">
            <mxPoint x="-1515.42" y="806" as="targetPoint" />
            <mxPoint as="offset" />
            <mxPoint x="-1376.4200000000003" y="806" as="sourcePoint" />
            <Array as="points">
              <mxPoint x="-1436.42" y="806" />
            </Array>
          </mxGeometry>
        </mxCell>
        <mxCell id="8U9UIuRIRXzJbzT-PRCx-90" value="&lt;div style=&quot;text-align: left;&quot;&gt;&lt;span style=&quot;font-size: 12px;&quot;&gt;Seleciona Localiação&lt;/span&gt;&lt;/div&gt;" style="html=1;verticalAlign=bottom;endArrow=block;curved=0;rounded=0;" edge="1" parent="1" source="EJXAhbPzqxiQPlRAI5tO-16">
          <mxGeometry x="0.0033" y="-10" relative="1" as="geometry">
            <mxPoint x="-1515.42" y="820" as="sourcePoint" />
            <mxPoint as="offset" />
            <mxPoint x="-1376.42" y="820" as="targetPoint" />
          </mxGeometry>
        </mxCell>
        <mxCell id="8U9UIuRIRXzJbzT-PRCx-91" value="&lt;div style=&quot;text-align: left;&quot;&gt;&lt;span style=&quot;font-size: 12px;&quot;&gt;Seleciona Localiação&lt;/span&gt;&lt;/div&gt;" style="html=1;verticalAlign=bottom;endArrow=block;curved=0;rounded=0;" edge="1" parent="1">
          <mxGeometry x="-0.0597" y="-7" relative="1" as="geometry">
            <mxPoint x="-1366.42" y="823" as="sourcePoint" />
            <mxPoint as="offset" />
            <mxPoint x="-1246.42" y="823" as="targetPoint" />
          </mxGeometry>
        </mxCell>
        <mxCell id="8U9UIuRIRXzJbzT-PRCx-92" value="&lt;div style=&quot;text-align: left;&quot;&gt;&lt;span style=&quot;font-size: 12px;&quot;&gt;Seleciona Localiação&lt;/span&gt;&lt;/div&gt;" style="html=1;verticalAlign=bottom;endArrow=block;curved=0;rounded=0;" edge="1" parent="1">
          <mxGeometry x="0.5294" y="-5" relative="1" as="geometry">
            <mxPoint x="-1235.42" y="826" as="sourcePoint" />
            <mxPoint as="offset" />
            <mxPoint x="-942.4999999999999" y="826" as="targetPoint" />
          </mxGeometry>
        </mxCell>
        <mxCell id="8U9UIuRIRXzJbzT-PRCx-93" style="edgeStyle=orthogonalEdgeStyle;rounded=0;orthogonalLoop=1;jettySize=auto;html=1;curved=0;dashed=1;endArrow=open;endFill=0;" edge="1" parent="1">
          <mxGeometry relative="1" as="geometry">
            <mxPoint x="-1246.42" y="840.9999999999999" as="sourcePoint" />
            <Array as="points" />
            <mxPoint x="-1366.42" y="840.9999999999999" as="targetPoint" />
          </mxGeometry>
        </mxCell>
        <mxCell id="8U9UIuRIRXzJbzT-PRCx-94" value="Retorna coordenadas" style="edgeLabel;html=1;align=center;verticalAlign=middle;resizable=0;points=[];" vertex="1" connectable="0" parent="8U9UIuRIRXzJbzT-PRCx-93">
          <mxGeometry x="0.212" relative="1" as="geometry">
            <mxPoint x="15" y="-7" as="offset" />
          </mxGeometry>
        </mxCell>
        <mxCell id="8U9UIuRIRXzJbzT-PRCx-95" style="edgeStyle=orthogonalEdgeStyle;rounded=0;orthogonalLoop=1;jettySize=auto;html=1;curved=0;dashed=1;endArrow=open;endFill=0;" edge="1" parent="1">
          <mxGeometry relative="1" as="geometry">
            <mxPoint x="-1376.42" y="847" as="sourcePoint" />
            <Array as="points">
              <mxPoint x="-1410" y="847" />
              <mxPoint x="-1410" y="847" />
            </Array>
            <mxPoint x="-1504" y="847" as="targetPoint" />
          </mxGeometry>
        </mxCell>
        <mxCell id="8U9UIuRIRXzJbzT-PRCx-96" value="Retorna coordenadas" style="edgeLabel;html=1;align=center;verticalAlign=middle;resizable=0;points=[];" vertex="1" connectable="0" parent="8U9UIuRIRXzJbzT-PRCx-95">
          <mxGeometry x="0.212" relative="1" as="geometry">
            <mxPoint x="15" y="-5" as="offset" />
          </mxGeometry>
        </mxCell>
        <mxCell id="8U9UIuRIRXzJbzT-PRCx-98" value="«API»&lt;br&gt;&lt;b&gt;Google Maps&lt;/b&gt;" style="shape=umlLifeline;perimeter=lifelinePerimeter;whiteSpace=wrap;html=1;container=1;dropTarget=0;collapsible=0;recursiveResize=0;outlineConnect=0;portConstraint=eastwest;newEdgeStyle={&quot;curved&quot;:0,&quot;rounded&quot;:0};" vertex="1" parent="1">
          <mxGeometry x="-999.5" y="1321" width="120" height="389" as="geometry" />
        </mxCell>
        <mxCell id="8U9UIuRIRXzJbzT-PRCx-99" value="" style="html=1;points=[[0,0,0,0,5],[0,1,0,0,-5],[1,0,0,0,5],[1,1,0,0,-5]];perimeter=orthogonalPerimeter;outlineConnect=0;targetShapes=umlLifeline;portConstraint=eastwest;newEdgeStyle={&quot;curved&quot;:0,&quot;rounded&quot;:0};" vertex="1" parent="8U9UIuRIRXzJbzT-PRCx-98">
          <mxGeometry x="55" y="80" width="10" height="80" as="geometry" />
        </mxCell>
        <mxCell id="8U9UIuRIRXzJbzT-PRCx-100" style="edgeStyle=orthogonalEdgeStyle;rounded=0;orthogonalLoop=1;jettySize=auto;html=1;curved=0;dashed=1;endArrow=open;endFill=0;" edge="1" parent="1" target="8U9UIuRIRXzJbzT-PRCx-109">
          <mxGeometry relative="1" as="geometry">
            <mxPoint x="-944.4999999999999" y="1460" as="sourcePoint" />
            <Array as="points">
              <mxPoint x="-944.42" y="1461" />
            </Array>
            <mxPoint x="-1237.42" y="1460" as="targetPoint" />
          </mxGeometry>
        </mxCell>
        <mxCell id="8U9UIuRIRXzJbzT-PRCx-101" value="Retorna coordenadas" style="edgeLabel;html=1;align=center;verticalAlign=middle;resizable=0;points=[];" vertex="1" connectable="0" parent="8U9UIuRIRXzJbzT-PRCx-100">
          <mxGeometry x="0.212" relative="1" as="geometry">
            <mxPoint x="119" as="offset" />
          </mxGeometry>
        </mxCell>
        <mxCell id="8U9UIuRIRXzJbzT-PRCx-102" value="«API»&lt;br&gt;&lt;b&gt;ViaCEP&lt;/b&gt;" style="shape=umlLifeline;perimeter=lifelinePerimeter;whiteSpace=wrap;html=1;container=1;dropTarget=0;collapsible=0;recursiveResize=0;outlineConnect=0;portConstraint=eastwest;newEdgeStyle={&quot;curved&quot;:0,&quot;rounded&quot;:0};" vertex="1" parent="1">
          <mxGeometry x="-1159.17" y="1321" width="130" height="389" as="geometry" />
        </mxCell>
        <mxCell id="8U9UIuRIRXzJbzT-PRCx-103" value="" style="html=1;points=[[0,0,0,0,5],[0,1,0,0,-5],[1,0,0,0,5],[1,1,0,0,-5]];perimeter=orthogonalPerimeter;outlineConnect=0;targetShapes=umlLifeline;portConstraint=eastwest;newEdgeStyle={&quot;curved&quot;:0,&quot;rounded&quot;:0};" vertex="1" parent="8U9UIuRIRXzJbzT-PRCx-102">
          <mxGeometry x="60" y="80" width="10" height="30" as="geometry" />
        </mxCell>
        <mxCell id="8U9UIuRIRXzJbzT-PRCx-104" style="edgeStyle=orthogonalEdgeStyle;rounded=0;orthogonalLoop=1;jettySize=auto;html=1;curved=0;dashed=1;endArrow=open;endFill=0;" edge="1" parent="1" source="8U9UIuRIRXzJbzT-PRCx-103" target="8U9UIuRIRXzJbzT-PRCx-109">
          <mxGeometry relative="1" as="geometry">
            <mxPoint x="-1352.42" y="1341" as="sourcePoint" />
            <mxPoint x="-1516.42" y="1421" as="targetPoint" />
            <Array as="points">
              <mxPoint x="-1132.42" y="1421" />
              <mxPoint x="-1132.42" y="1421" />
            </Array>
          </mxGeometry>
        </mxCell>
        <mxCell id="8U9UIuRIRXzJbzT-PRCx-105" value="Retorno endereço" style="edgeLabel;html=1;align=center;verticalAlign=middle;resizable=0;points=[];" vertex="1" connectable="0" parent="8U9UIuRIRXzJbzT-PRCx-104">
          <mxGeometry x="0.1543" y="1" relative="1" as="geometry">
            <mxPoint x="12" y="-1" as="offset" />
          </mxGeometry>
        </mxCell>
        <mxCell id="8U9UIuRIRXzJbzT-PRCx-106" style="edgeStyle=orthogonalEdgeStyle;rounded=0;orthogonalLoop=1;jettySize=auto;html=1;curved=0;" edge="1" parent="1">
          <mxGeometry relative="1" as="geometry">
            <mxPoint x="-1237.42" y="1415" as="sourcePoint" />
            <mxPoint x="-1099.17" y="1415" as="targetPoint" />
            <Array as="points">
              <mxPoint x="-1172.42" y="1415" />
              <mxPoint x="-1172.42" y="1415" />
            </Array>
          </mxGeometry>
        </mxCell>
        <mxCell id="8U9UIuRIRXzJbzT-PRCx-107" value="Consulta CEP" style="edgeLabel;html=1;align=center;verticalAlign=middle;resizable=0;points=[];" vertex="1" connectable="0" parent="8U9UIuRIRXzJbzT-PRCx-106">
          <mxGeometry x="-0.2558" y="1" relative="1" as="geometry">
            <mxPoint x="1" y="-9" as="offset" />
          </mxGeometry>
        </mxCell>
        <mxCell id="8U9UIuRIRXzJbzT-PRCx-108" value="&lt;span style=&quot;font-family: Helvetica; font-size: 12px; font-style: normal; font-variant-ligatures: normal; font-variant-caps: normal; font-weight: 400; letter-spacing: normal; orphans: 2; text-align: center; text-indent: 0px; text-transform: none; widows: 2; word-spacing: 0px; -webkit-text-stroke-width: 0px; white-space: nowrap; text-decoration-thickness: initial; text-decoration-style: initial; text-decoration-color: initial; float: none; display: inline !important;&quot;&gt;Localizacao&lt;/span&gt;" style="shape=umlLifeline;perimeter=lifelinePerimeter;whiteSpace=wrap;html=1;container=1;dropTarget=0;collapsible=0;recursiveResize=0;outlineConnect=0;portConstraint=eastwest;newEdgeStyle={&quot;curved&quot;:0,&quot;rounded&quot;:0};" vertex="1" parent="1">
          <mxGeometry x="-1292.42" y="1321" width="100" height="389" as="geometry" />
        </mxCell>
        <mxCell id="8U9UIuRIRXzJbzT-PRCx-109" value="" style="html=1;points=[[0,0,0,0,5],[0,1,0,0,-5],[1,0,0,0,5],[1,1,0,0,-5]];perimeter=orthogonalPerimeter;outlineConnect=0;targetShapes=umlLifeline;portConstraint=eastwest;newEdgeStyle={&quot;curved&quot;:0,&quot;rounded&quot;:0};" vertex="1" parent="8U9UIuRIRXzJbzT-PRCx-108">
          <mxGeometry x="45" y="80" width="10" height="80" as="geometry" />
        </mxCell>
        <mxCell id="8U9UIuRIRXzJbzT-PRCx-110" value="&lt;span style=&quot;text-wrap: nowrap;&quot;&gt;LocalizacaoCtr&lt;/span&gt;" style="shape=umlLifeline;perimeter=lifelinePerimeter;whiteSpace=wrap;html=1;container=1;dropTarget=0;collapsible=0;recursiveResize=0;outlineConnect=0;portConstraint=eastwest;newEdgeStyle={&quot;curved&quot;:0,&quot;rounded&quot;:0};" vertex="1" parent="1">
          <mxGeometry x="-1422.42" y="1321" width="100" height="389" as="geometry" />
        </mxCell>
        <mxCell id="8U9UIuRIRXzJbzT-PRCx-111" value="" style="html=1;points=[[0,0,0,0,5],[0,1,0,0,-5],[1,0,0,0,5],[1,1,0,0,-5]];perimeter=orthogonalPerimeter;outlineConnect=0;targetShapes=umlLifeline;portConstraint=eastwest;newEdgeStyle={&quot;curved&quot;:0,&quot;rounded&quot;:0};" vertex="1" parent="8U9UIuRIRXzJbzT-PRCx-110">
          <mxGeometry x="45" y="80" width="10" height="80" as="geometry" />
        </mxCell>
        <mxCell id="8U9UIuRIRXzJbzT-PRCx-112" value="&lt;span style=&quot;font-size: 12px; text-align: left;&quot;&gt;Consultar CEP&lt;/span&gt;" style="html=1;verticalAlign=bottom;endArrow=block;curved=0;rounded=0;" edge="1" parent="1">
          <mxGeometry relative="1" as="geometry">
            <mxPoint x="-1367.42" y="1412" as="sourcePoint" />
            <mxPoint as="offset" />
            <mxPoint x="-1247.42" y="1412" as="targetPoint" />
          </mxGeometry>
        </mxCell>
        <mxCell id="8U9UIuRIRXzJbzT-PRCx-113" value="Retorno Endereço" style="html=1;verticalAlign=bottom;endArrow=open;dashed=1;endSize=8;curved=0;rounded=0;" edge="1" parent="1">
          <mxGeometry x="-0.0833" y="5" relative="1" as="geometry">
            <mxPoint x="-1367.4200000000003" y="1425" as="targetPoint" />
            <mxPoint as="offset" />
            <mxPoint x="-1247.4200000000003" y="1425" as="sourcePoint" />
            <Array as="points">
              <mxPoint x="-1297.42" y="1425" />
            </Array>
          </mxGeometry>
        </mxCell>
        <mxCell id="8U9UIuRIRXzJbzT-PRCx-114" value="&lt;span style=&quot;font-size: 12px; text-align: left;&quot;&gt;Consultar CEP&lt;/span&gt;" style="html=1;verticalAlign=bottom;endArrow=block;curved=0;rounded=0;" edge="1" parent="1">
          <mxGeometry relative="1" as="geometry">
            <mxPoint x="-1504" y="1409" as="sourcePoint" />
            <mxPoint as="offset" />
            <mxPoint x="-1377.42" y="1409" as="targetPoint" />
          </mxGeometry>
        </mxCell>
        <mxCell id="8U9UIuRIRXzJbzT-PRCx-115" value="Retorno Endereço" style="html=1;verticalAlign=bottom;endArrow=open;dashed=1;endSize=8;curved=0;rounded=0;" edge="1" parent="1">
          <mxGeometry x="-0.0033" y="4" relative="1" as="geometry">
            <mxPoint x="-1504" y="1428" as="targetPoint" />
            <mxPoint as="offset" />
            <mxPoint x="-1377.42" y="1428" as="sourcePoint" />
            <Array as="points">
              <mxPoint x="-1451.42" y="1428" />
            </Array>
          </mxGeometry>
        </mxCell>
        <mxCell id="8U9UIuRIRXzJbzT-PRCx-116" value="&lt;div style=&quot;text-align: left;&quot;&gt;&lt;span style=&quot;font-size: 12px;&quot;&gt;Seleciona Localiação&lt;/span&gt;&lt;/div&gt;" style="html=1;verticalAlign=bottom;endArrow=block;curved=0;rounded=0;" edge="1" parent="1">
          <mxGeometry x="0.0033" y="-10" relative="1" as="geometry">
            <mxPoint x="-1504" y="1440" as="sourcePoint" />
            <mxPoint as="offset" />
            <mxPoint x="-1377.42" y="1440" as="targetPoint" />
          </mxGeometry>
        </mxCell>
        <mxCell id="8U9UIuRIRXzJbzT-PRCx-117" value="&lt;div style=&quot;text-align: left;&quot;&gt;&lt;span style=&quot;font-size: 12px;&quot;&gt;Seleciona Localiação&lt;/span&gt;&lt;/div&gt;" style="html=1;verticalAlign=bottom;endArrow=block;curved=0;rounded=0;" edge="1" parent="1">
          <mxGeometry x="-0.0597" y="-7" relative="1" as="geometry">
            <mxPoint x="-1367.42" y="1447" as="sourcePoint" />
            <mxPoint as="offset" />
            <mxPoint x="-1247.42" y="1447" as="targetPoint" />
          </mxGeometry>
        </mxCell>
        <mxCell id="8U9UIuRIRXzJbzT-PRCx-118" value="&lt;div style=&quot;text-align: left;&quot;&gt;&lt;span style=&quot;font-size: 12px;&quot;&gt;Seleciona Localiação&lt;/span&gt;&lt;/div&gt;" style="html=1;verticalAlign=bottom;endArrow=block;curved=0;rounded=0;" edge="1" parent="1">
          <mxGeometry x="0.5294" y="-5" relative="1" as="geometry">
            <mxPoint x="-1236.42" y="1450" as="sourcePoint" />
            <mxPoint as="offset" />
            <mxPoint x="-943.4999999999999" y="1450" as="targetPoint" />
          </mxGeometry>
        </mxCell>
        <mxCell id="8U9UIuRIRXzJbzT-PRCx-119" style="edgeStyle=orthogonalEdgeStyle;rounded=0;orthogonalLoop=1;jettySize=auto;html=1;curved=0;dashed=1;endArrow=open;endFill=0;" edge="1" parent="1">
          <mxGeometry relative="1" as="geometry">
            <mxPoint x="-1247.42" y="1469" as="sourcePoint" />
            <Array as="points" />
            <mxPoint x="-1367.42" y="1469" as="targetPoint" />
          </mxGeometry>
        </mxCell>
        <mxCell id="8U9UIuRIRXzJbzT-PRCx-120" value="Retorna coordenadas" style="edgeLabel;html=1;align=center;verticalAlign=middle;resizable=0;points=[];" vertex="1" connectable="0" parent="8U9UIuRIRXzJbzT-PRCx-119">
          <mxGeometry x="0.212" relative="1" as="geometry">
            <mxPoint x="15" y="-7" as="offset" />
          </mxGeometry>
        </mxCell>
        <mxCell id="8U9UIuRIRXzJbzT-PRCx-121" style="edgeStyle=orthogonalEdgeStyle;rounded=0;orthogonalLoop=1;jettySize=auto;html=1;curved=0;dashed=1;endArrow=open;endFill=0;" edge="1" parent="1">
          <mxGeometry relative="1" as="geometry">
            <mxPoint x="-1377.42" y="1476.9999999999998" as="sourcePoint" />
            <Array as="points">
              <mxPoint x="-1420" y="1477" />
              <mxPoint x="-1420" y="1477" />
            </Array>
            <mxPoint x="-1504" y="1476.9999999999998" as="targetPoint" />
          </mxGeometry>
        </mxCell>
        <mxCell id="8U9UIuRIRXzJbzT-PRCx-122" value="Retorna coordenadas" style="edgeLabel;html=1;align=center;verticalAlign=middle;resizable=0;points=[];" vertex="1" connectable="0" parent="8U9UIuRIRXzJbzT-PRCx-121">
          <mxGeometry x="0.212" relative="1" as="geometry">
            <mxPoint x="14" y="-5" as="offset" />
          </mxGeometry>
        </mxCell>
      </root>
    </mxGraphModel>
  </diagram>
</mxfile>
